<svg xmlns="http://www.w3.org/2000/svg">
<defs>
<font id="DKLemonYellowSun" horiz-adv-x="381" >
  <font-face 
    font-family="DK Lemon Yellow Sun"
    font-weight="400"
    font-stretch="normal"
    units-per-em="1000"
    panose-1="2 0 0 0 0 0 0 0 0 0"
    ascent="800"
    descent="-200"
    x-height="747"
    cap-height="772.5"
    bbox="-55 -188 893.148 1014"
    underline-thickness="50"
    underline-position="-50"
    unicode-range="U+0020-U+20AC"
  />
<missing-glyph horiz-adv-x="944" 
d="M420 857q4 22 23.5 23t26.5 -21q0 -24 -3.5 -77.5t-4.5 -83.5q15 -1 45 -8q14 10 32.5 52.5t22.5 64.5q3 15 15 20t23 -2t11 -24q-14 -76 -48 -122q41 -12 68 -29q98 45 112 93q12 17 29.5 13t18.5 -27q-21 -63 -117 -114q18 -19 37 -51l6 -11q93 79 132 79
q22 0 25.5 -18t-14.5 -30q-47 -12 -124 -79q9 -28 12 -73q21 1 61.5 8l46.5 8h11q24 0 26 -22t-23 -27q-5 -1 -52.5 -9t-71.5 -10q-4 -45 -11 -76q83 -6 131 -28q17 -13 12 -29.5t-25 -16.5h-5q-46 21 -130 25q-15 -35 -35 -52q-13 -10 -30 -17q0 -2 1 -3q5 -19 42 -58.5
t44 -67.5q-2 -23 -20.5 -27t-28.5 17q-7 25 -42.5 62.5t-43.5 62.5q-41 -10 -92 -4q12 -26 12 -64.5t-3 -64.5q-1 -17 -12.5 -24t-23.5 -1t-14 23q13 81 -13 139q-40 10 -57 16l-14 4q-3 -21 -16 -68.5t-15 -74.5q-5 -14 -16 -18t-21 3t-12 21q2 28 17 80t17 78
q-24 12 -58 37q-17 -8 -39 -43t-41 -45q-1 0 -3 -0.5t-3 -0.5q-19 0 -25 16.5t9 29.5q18 8 37 39t28 39l-17 18q-12 14 -20 48q-14 -3 -45.5 -16.5t-50.5 -15.5q-14 2 -21 12t-3 21t18 16q19 2 50.5 15.5t45.5 16.5q-3 44 2 89q-37 10 -130 10q-17 2 -23 14t1 23.5t24 12.5
h10q86 0 128 -11l3 8q14 29 34 52q-13 11 -47 28.5t-42 22.5q-16 17 -6 33.5t32 9.5q13 -9 49 -27.5t51 -32.5q14 11 39 23l-28 34l-29 36t-18 20q-18 19 -3 36.5t35 1.5q60 -59 92 -106q20 7 35 11q-1 29 3 85t4 80zM552 633q-72 21 -130 10q-18 -2 -53 -18t-51 -29
q-37 -32 -49 -64.5t-13 -86.5q0 -8 -1 -29t-0.5 -27t3 -21.5t8 -24t16 -21.5t26.5 -26q44 -35 111 -57q49 -16 94.5 -19t84 8t64.5 37.5t36 69.5t-1 104q-6 68 -44 123t-101 71zM312 377q-18 19 -3 36.5t35 1.5q27 -25 64.5 -44t69.5 -19q2 0 6 0.5t5 0.5q14 2 38.5 12

<glyph glyph-name=".notdef" horiz-adv-x="944" 
d="M420 857q4 22 23.5 23t26.5 -21q0 -24 -3.5 -77.5t-4.5 -83.5q15 -1 45 -8q14 10 32.5 52.5t22.5 64.5q3 15 15 20t23 -2t11 -24q-14 -76 -48 -122q41 -12 68 -29q98 45 112 93q12 17 29.5 13t18.5 -27q-21 -63 -117 -114q18 -19 37 -51l6 -11q93 79 132 79
q22 0 25.5 -18t-14.5 -30q-47 -12 -124 -79q9 -28 12 -73q21 1 61.5 8l46.5 8h11q24 0 26 -22t-23 -27q-5 -1 -52.5 -9t-71.5 -10q-4 -45 -11 -76q83 -6 131 -28q17 -13 12 -29.5t-25 -16.5h-5q-46 21 -130 25q-15 -35 -35 -52q-13 -10 -30 -17q0 -2 1 -3q5 -19 42 -58.5
t44 -67.5q-2 -23 -20.5 -27t-28.5 17q-7 25 -42.5 62.5t-43.5 62.5q-41 -10 -92 -4q12 -26 12 -64.5t-3 -64.5q-1 -17 -12.5 -24t-23.5 -1t-14 23q13 81 -13 139q-40 10 -57 16l-14 4q-3 -21 -16 -68.5t-15 -74.5q-5 -14 -16 -18t-21 3t-12 21q2 28 17 80t17 78
q-24 12 -58 37q-17 -8 -39 -43t-41 -45q-1 0 -3 -0.5t-3 -0.5q-19 0 -25 16.5t9 29.5q18 8 37 39t28 39l-17 18q-12 14 -20 48q-14 -3 -45.5 -16.5t-50.5 -15.5q-14 2 -21 12t-3 21t18 16q19 2 50.5 15.5t45.5 16.5q-3 44 2 89q-37 10 -130 10q-17 2 -23 14t1 23.5t24 12.5
h10q86 0 128 -11l3 8q14 29 34 52q-13 11 -47 28.5t-42 22.5q-16 17 -6 33.5t32 9.5q13 -9 49 -27.5t51 -32.5q14 11 39 23l-28 34l-29 36t-18 20q-18 19 -3 36.5t35 1.5q60 -59 92 -106q20 7 35 11q-1 29 3 85t4 80zM552 633q-72 21 -130 10q-18 -2 -53 -18t-51 -29
q-37 -32 -49 -64.5t-13 -86.5q0 -8 -1 -29t-0.5 -27t3 -21.5t8 -24t16 -21.5t26.5 -26q44 -35 111 -57q49 -16 94.5 -19t84 8t64.5 37.5t36 69.5t-1 104q-6 68 -44 123t-101 71zM312 377q-18 19 -3 36.5t35 1.5q27 -25 64.5 -44t69.5 -19q2 0 6 0.5t5 0.5q14 2 38.5 12
t34.5 12q15 15 32 4.5t8 -32.5q-3 -7 -10 -12t-13 -7.5t-17.5 -6.5l-14.5 -5q-64 -21 -124.5 -4.5t-110.5 63.5zM414 527q10 -13 4 -26.5t-18.5 -15.5t-23.5 10q-13 19 4 32.5t34 -0.5zM580 503q14 -17 0.5 -34t-32.5 -4q-13 9 -10 23.5t15.5 19t26.5 -4.5z" />
    <glyph glyph-name=".null" horiz-adv-x="0" 
 />
    <glyph glyph-name="nonmarkingreturn" horiz-adv-x="333" 
 />
    <glyph glyph-name="space" unicode=" " horiz-adv-x="300" 
 />
    <glyph glyph-name="exclam" unicode="!" horiz-adv-x="205" 
d="M50 789q5 12 9.5 16t16.5 4q31 0 34 -20q6 -90 6 -101q0 -103 11 -266.5t11 -267.5q0 -31 -19 -31q-15 0 -23 12.5t-9 22.5t-2 28v5q-5 82 -9 195.5t-9.5 207.5t-16.5 195zM76 44q0 9 12.5 19.5t21.5 10.5q20 0 32.5 -14t12.5 -35q0 -25 -40 -25q-39 0 -39 44z" />
    <glyph glyph-name="quotedbl" unicode="&#x22;" horiz-adv-x="276" 
d="M177 425q-12 197 -12 352q0 23 24 23q10 0 23.5 -5t13.5 -14v-338q0 -10 -7 -20.5t-17 -10.5q-13 0 -25 13zM61 461q-11 159 -11 309q0 20 22 20q10 0 22.5 -4t12.5 -13v-296q0 -8 -7 -17.5t-16 -9.5q-12 0 -23 11z" />
    <glyph glyph-name="dollar" unicode="$" horiz-adv-x="336" 
d="M145 -95q-8 57 -11 108q-40 10 -59 55t-19 95q0 13 13.5 23t25.5 6q16 -5 19 -31t7.5 -56t25.5 -42h6q37 0 54.5 38.5t17.5 79.5q0 105 -27 166q-16 37 -56.5 98t-66 115t-25.5 109q0 39 19 82t52 59q-7 60 -7 103q0 9 22 9q32 0 32 -8v-97q37 -6 69.5 -30t32.5 -56
q0 -30 -26 -30q-13 0 -21.5 9.5t-13.5 20.5t-17 20.5t-30 9.5q-55 0 -55 -106q0 -45 21 -87.5t58 -92.5t51 -76q32 -60 43.5 -133t-5.5 -132q-11 -35 -34 -68t-53 -47v-108q0 -3 -6.5 -7t-14.5 -4q-12 0 -22 5z" />
    <glyph glyph-name="quotesingle" unicode="'" horiz-adv-x="161" 
d="M62 425q-12 197 -12 352q0 23 24 23q10 0 23.5 -5t13.5 -14v-338q0 -10 -7 -20.5t-17 -10.5q-13 0 -25 13z" />
    <glyph glyph-name="parenleft" unicode="(" horiz-adv-x="312" 
d="M50 430q0 226 100 344q1 1 8.5 10t11 12.5t10.5 9.5t13 8t13 2q22 0 22 -25q0 -4 -18.5 -29.5l-39.5 -55.5t-26 -44q-42 -107 -42 -260q0 -143 36 -229q20 -44 53 -82l35 -35q4 -4 14.5 -9t16 -11t5.5 -16q0 -12 -29 -12q-35 0 -77 48q-106 119 -106 374z" />
    <glyph glyph-name="parenright" unicode=")" horiz-adv-x="312" 
d="M262 430q0 -255 -106 -374q-42 -48 -77 -48q-29 0 -29 12q0 10 5.5 16t16 11t14.5 9l9 9l16 16l10 10q33 38 53 82q36 86 36 229q0 153 -42 260q-5 14 -26 44l-39.5 55.5t-18.5 29.5q0 25 22 25q7 0 13 -2t13 -8t10.5 -9.5t11 -12.5t8.5 -10q100 -118 100 -344z" />
    <glyph glyph-name="comma" unicode="," horiz-adv-x="162" 
d="M50 32q0 25 25 25q16 0 26.5 -9.5t10.5 -24.5q0 -21 -20 -91q-3 -14 -16 -14q-7 0 -10.5 3t-4.5 7t-1 10v3q0 10 -5 43t-5 48z" />
    <glyph glyph-name="hyphen" unicode="-" horiz-adv-x="570" 
d="M50 377q0 22 17 25q59 -2 168 2t151 4h111q23 0 23 -30q0 -7 -3.5 -11t-10 -5.5t-12.5 -1.5t-14.5 1t-11.5 1l-316 -5l-74 -12h-3q-12 0 -18.5 9.5t-6.5 22.5z" />
    <glyph glyph-name="period" unicode="." horiz-adv-x="179" 
d="M50 56q0 9 12.5 19.5t21.5 10.5q20 0 32.5 -14t12.5 -35q0 -25 -40 -25q-39 0 -39 44z" />
    <glyph glyph-name="slash" unicode="/" horiz-adv-x="367" 
d="M50 17v6l1 5q148 492 214 763l2 14q2 14 4 16q9 1 13 1q33 0 33 -35q0 -26 -7.5 -55t-20.5 -65.5t-18 -54.5l-52.5 -188.5l-63.5 -225.5t-58 -187q-4 -17 -17 -17q-16 0 -23 5t-7 18z" />
    <glyph glyph-name="zero" unicode="0" horiz-adv-x="417" 
d="M50 475q0 63 13 134l2 10q37 192 127 192q45 0 76.5 -18t48.5 -52.5t24.5 -67.5t12.5 -80q13 -130 13 -157q0 -51 -13 -210q-3 -34 -11.5 -66t-23.5 -63.5t-42 -50.5t-62 -19q-47 0 -78 39.5t-46 93.5q-41 146 -41 315zM103 454q0 -31 5 -85.5t16.5 -125t36.5 -120
t58 -49.5q16 0 30.5 18.5t23.5 47.5t14 49t8 37l6 52q7 59 7 152q0 75 -14 183q-3 24 -8.5 46t-16 48t-29.5 42t-44 16q-12 0 -28 -29.5t-24.5 -53.5t-13.5 -43q-18 -59 -26 -151v-7q0 -7 -0.5 -15t-0.5 -12z" />
    <glyph glyph-name="one" unicode="1" horiz-adv-x="168" 
d="M50 26l1 11q0 70 7 217v535q4 15 26 15q27 0 34 -28v-264l-13 -508q-8 -14 -31 -14q-10 0 -17 13t-7 23z" />
    <glyph glyph-name="two" unicode="2" horiz-adv-x="357" 
d="M50 43q0 4 70 196q172 483 94 483h-4q-39 -5 -60.5 -12t-41 -19t-27.5 -16q-27 -11 -27 22q0 29 53.5 53.5t92.5 28.5q47 4 73.5 -20t26.5 -71q0 -81 -29 -175t-73.5 -206t-63.5 -186l-7 -28v-5l139 11h4q18 0 29 -13t6.5 -27t-24.5 -16l-206 -25q-17 0 -21 5t-4 20z" />
    <glyph glyph-name="three" unicode="3" horiz-adv-x="365" 
d="M50 69q0 11 8 17.5t20 6.5q11 0 27.5 -11t28.5 -11q49 0 79.5 39.5t39 87.5t1.5 90q-8 50 -27 86.5t-41 55t-42.5 31t-34 21.5t-13.5 19q0 2 2 8q4 11 36 41.5t59 69t27 75.5q0 28 -22 41t-52 13q-11 0 -23.5 -2t-21.5 -4t-10 -2q-10 0 -22 14t-12 24q0 25 64 25h4
q65 0 110.5 -27t45.5 -87q0 -47 -34 -99t-79 -83q128 -79 147 -223q2 -20 2 -32q0 -55 -20 -107.5t-63 -90t-99 -37.5q-31 0 -58 12t-27 39z" />
    <glyph glyph-name="four" unicode="4" horiz-adv-x="419" 
d="M260 11q-6 36 -6.5 106t-7.5 104l-6 6q-9 -1 -71 -10.5t-90 -9.5q-10 0 -19.5 11.5t-9.5 22.5q0 1 3 13t3 14q9 37 15 81q1 14 12.5 121l21 198.5l12.5 120.5l1 5q0 5 1 9t3 9t5 8t7 3q45 0 45 -39v-22q-14 -141 -62 -494h8l6 -1q34 0 109 14q1 0 3 0.5t3 0.5v142
q0 14 23 14q25 0 34 -18.5t5.5 -43.5t-3 -50t8.5 -38q6 -7 20.5 -8t24.5 -5t10 -21q0 -23 -53 -33h-2v-210q0 -5 -9.5 -9.5t-14.5 -4.5q-25 0 -30 14z" />
    <glyph glyph-name="five" unicode="5" horiz-adv-x="396" 
d="M98 119q5 19 9 23.5t12 4.5q19 0 36 -27.5t34 -27.5q58 0 83.5 109.5t15.5 283.5q-1 26 -6.5 45.5t-12 32t-19 21t-22.5 12t-28 5t-30 1.5t-34.5 -1t-35.5 -1q-3 0 -11 -0.5t-11 0t-8 1.5t-8 4t-4 8v18q0 29 -4 85.5t-4 84.5q0 29 21 29h189q13 0 21 -11t8 -23
q0 -13 -3 -16.5t-18 -3.5h-143q-6 0 -6 -16l3 -106q114 13 161.5 -20.5t58.5 -104.5q0 -11 1 -48.5t2 -70.5t-1 -80.5t-6.5 -86t-15.5 -79.5t-27.5 -69t-43.5 -46t-61 -18q-36 0 -64 26.5t-28 61.5z" />
    <glyph glyph-name="six" unicode="6" horiz-adv-x="385" 
d="M50 246v17q9 134 24 228.5t50 211.5q1 3 4.5 16.5t6 20.5l7 20t9.5 20.5t11.5 16t15 12.5t17.5 4q14 0 19.5 -6.5t5.5 -22.5l-2 -16q0 -1 -1 -2t-2.5 -3.5t-2.5 -5.5q-35 -81 -47 -122q0 -2 -1 -4q-33 -108 -35 -121q-12 -91 -12 -135v-24q45 34 85 34q66 0 99.5 -59.5
t33.5 -130.5q0 -85 -37 -140.5t-116 -55.5q-132 0 -132 247zM110 212q0 -121 48 -159q2 0 12 -0.5t12 -0.5q31 0 53 23.5t30.5 53t8.5 60.5q0 19 -3 40t-9.5 45.5t-22 40.5t-36.5 16q-32 0 -62.5 -41.5t-30.5 -77.5z" />
    <glyph glyph-name="seven" unicode="7" horiz-adv-x="344" 
d="M84 9v9q77 351 143 684v13q0 12 -7 14q-25 3 -74.5 7t-74.5 7q-21 11 -21 33q0 10 7 14q4 1 31 1q26 0 78 -4t78 -4q19 0 34.5 -10.5t15.5 -29.5v-7q-8 -45 -60 -286t-55 -269q-2 -8 -16 -82.5t-25 -113.5q-7 -8 -24 -8q-30 0 -30 32z" />
    <glyph glyph-name="eight" unicode="8" horiz-adv-x="371" 
d="M175 1q-125 24 -125 168v11v21t0.5 25.5t0.5 12.5q1 27 16.5 63t38.5 36q22 0 30 -27q0 -2 -1.5 -6t-1.5 -5q-24 -78 -24 -117q0 -129 73 -129q42 0 60.5 34t18.5 81q0 119 -53 201l-42.5 62t-47 70.5t-32 68t-15.5 78.5q0 55 30.5 102t82.5 47q72 0 97.5 -41.5
t25.5 -116.5q0 -90 -65 -210q79 -146 79 -298q0 -58 -43.5 -94.5t-102.5 -36.5zM129 653q0 -29 25 -97t44 -68q13 0 31.5 72.5t18.5 99.5q0 91 -56 91q-25 0 -44 -35.5t-19 -62.5z" />
    <glyph glyph-name="nine" unicode="9" horiz-adv-x="390" 
d="M129 71q0 23 26 23q14 0 34.5 -13.5t33.5 -13.5q30 0 44 83v3q14 81 14 243q0 12 -0.5 35.5t-0.5 42.5v20q0 35 -20 185v2q-1 2 -1 3q-7 57 -25 66q-5 2 -10 2q-50 0 -82.5 -62t-32.5 -117q0 -105 59 -105q2 0 20 3.5t20 3.5q1 1 17 1q15 0 19 -3.5t4 -17.5
q0 -24 -29.5 -32.5t-56.5 -6.5q-31 2 -54 18.5t-35 42.5t-17.5 53t-5.5 56q0 87 51 156t134 69q28 0 47 -17.5t27.5 -51t11.5 -54.5t5 -56v-6q14 -170 14 -254v-19t-0.5 -23.5t-0.5 -11.5l-13 -138q-15 -172 -112 -172q-21 0 -53 21t-32 42z" />
    <glyph glyph-name="colon" unicode=":" horiz-adv-x="179" 
d="M50 566q0 9 12.5 19.5t21.5 10.5q20 0 32.5 -14t12.5 -35q0 -25 -40 -25q-39 0 -39 44zM50 56q0 9 12.5 19.5t21.5 10.5q20 0 32.5 -14t12.5 -35q0 -25 -40 -25q-39 0 -39 44z" />
    <glyph glyph-name="semicolon" unicode=";" horiz-adv-x="179" 
d="M50 566q0 9 12.5 19.5t21.5 10.5q20 0 32.5 -14t12.5 -35q0 -25 -40 -25q-39 0 -39 44zM50 32q0 25 25 25q16 0 26.5 -9.5t10.5 -24.5q0 -21 -20 -91q-3 -14 -16 -14q-7 0 -10.5 3t-4.5 7t-1 10v3q0 10 -5 43t-5 48z" />
    <glyph glyph-name="equal" unicode="=" horiz-adv-x="538" 
d="M52 296q0 25 18 28q16 -2 137.5 -1t137.5 1h118q25 0 25 -33q0 -8 -3.5 -12.5t-11 -6t-13.5 -1.5t-15 1t-13 1l-271 1h-83q-26 0 -26 22zM50 442q0 25 18 28q16 -2 137.5 -1t137.5 1h118q25 0 25 -33q0 -8 -3.5 -12.5t-11 -6t-13.5 -1.5t-15 1t-13 1l-271 1h-83
q-26 0 -26 22z" />
    <glyph glyph-name="question" unicode="?" horiz-adv-x="358" 
d="M135 162v105v31v33t0.5 30.5t2.5 33t5 29.5t7.5 32t11.5 29q9 19 31.5 57t35.5 69t13 63q0 50 -45 50q-23 0 -41.5 -15.5t-29 -34.5t-25 -34.5t-29.5 -15.5q-22 0 -22 28q0 50 47 87.5t95 37.5t82 -28t34 -75q0 -39 -17.5 -82t-39 -75t-39 -75t-17.5 -82v-198
q0 -14 -23 -14q-29 0 -37 14zM135 53v17q8 7 26 7q26 0 33.5 -10.5t7.5 -37.5q0 -1 -0.5 -12.5t-0.5 -13.5q-1 -7 -23 -7q-25 0 -34 14t-9 43z" />
    <glyph glyph-name="at" unicode="@" horiz-adv-x="603" 
d="M51 347q-2 72 10 146t41.5 146.5t88 118.5t137.5 46q63 0 109.5 -39.5t70 -101.5t34.5 -122.5t11 -118.5q0 -33 -1.5 -58t-8.5 -59.5t-19 -57.5t-36 -39.5t-57 -16.5q-30 0 -52 17.5t-28 46.5q-43 -25 -100 -25q-98 0 -98 92q0 41 32 86t73 55q18 5 29 5.5t27.5 -0.5
t27.5 -1q0 2 2 17.5t1 18.5q-4 28 -20.5 50t-43.5 25q-20 3 -37 -14.5t-31.5 -36t-29.5 -18.5q-24 0 -24 27q0 33 42 61t78 28q61 0 91.5 -48t32.5 -114q1 -19 1 -83.5t-1 -84.5q6 -59 34 -59l6 1q36 31 47.5 76.5t11.5 107.5q0 44 -7.5 95t-25 109t-54 95.5t-86.5 37.5
q-60 0 -82 -12q-145 -80 -145 -389q0 -40 6.5 -82t22.5 -85.5t39.5 -78t60.5 -56t82 -21.5q37 0 60.5 10t46.5 38q4 5 15.5 27.5t25 36t29.5 11.5q3 -1 10 -10.5t6 -12.5q-1 -15 -14.5 -39t-24.5 -37q-59 -69 -160 -69q-63 0 -113.5 35t-80 90.5t-45.5 115.5t-17 117z
M206 318q0 -23 10 -32t34 -9q49 0 75 31.5t26 81.5v15q-18 11 -45.5 13.5t-47.5 -7.5q-22 -12 -37 -40t-15 -53z" />
    <glyph glyph-name="A" unicode="A" 
d="M51 2l44 746q3 43 20 55.5t36 -4.5t27 -51q27 -106 153 -721q0 -18 -17.5 -23.5t-30.5 16.5l-36 180l-135 -20q-12 -70 -17 -178q-1 -11 -12 -14.5t-21.5 1t-10.5 13.5zM139 691q-20 -303 -25 -409q-2 -14 -2 -54l125 18z" />
    <glyph glyph-name="B" unicode="B" horiz-adv-x="426" 
d="M113 14q-17 10 -27.5 167t-17 337t-12.5 212q-6 34 -6 69q0 13 12 20.5t26 6.5q79 -5 129.5 -41t50.5 -109q0 -51 -9 -70t-49 -55q166 -74 166 -332q0 -75 -49 -129.5t-124 -75.5l-25 -6q-33 -6 -65 6zM119 516q0 -2 0.5 -18t0.5 -18q4 -70 13 -207.5t13 -213.5h6
q82 0 124.5 48t42.5 129q0 53 -10.5 100t-32.5 89t-62.5 66.5t-94.5 24.5zM106 769q0 -95 2 -135q0 -22 5 -57q3 -1 17 -1q36 0 58 26.5t22 62.5q0 49 -27.5 76.5t-76.5 27.5z" />
    <glyph glyph-name="C" unicode="C" horiz-adv-x="428" 
d="M55 449q2 43 12 92t30.5 103.5t60 90t91.5 35.5h7q35 -2 61.5 -20t26.5 -52q0 -22 -17 -22q-16 0 -36 21.5t-39 24.5h-2q-2 1 -4 1q-40 0 -75 -64.5t-50.5 -157.5t-14 -186.5t37.5 -160t101 -69.5h5q24 0 38 14.5t18 32t15 32t30 14.5h3q24 0 24 -22q0 -8 -2 -12.5
t-6 -12t-7 -14.5q-35 -74 -112 -74h-9q-55 3 -95 33.5t-58 76t-29 100t-9 105t4 91.5z" />
    <glyph glyph-name="D" unicode="D" horiz-adv-x="373" 
d="M70 776q1 11 15 16.5t29 5.5h4q205 -9 205 -365q0 -8 -0.5 -22.5t-0.5 -20.5q-9 -343 -229 -343q-23 0 -43 4q1 112 2 158q2 105 13 379q1 9 2.5 91t1.5 91zM126 742l-23 -651q8 -1 11 -1q44 0 76 33t47 86.5t21 94t8 82.5q5 35 0 93.5t-15 115t-43 100t-82 47.5z" />
    <glyph glyph-name="E" unicode="E" horiz-adv-x="319" 
d="M65 93l-1 49v198q0 72 -7 189t-7 189v51q78 8 117.5 5.5t50 -8t10.5 -17.5q0 -20 -12 -25h-109q-7 0 -7 -8q0 -47 2.5 -93.5t7 -104.5t6.5 -95q4 -1 116 -1q23 -1 34 -25t-10 -32q-5 -2 -13 -2h-127l2 -234q7 -2 47.5 1t72 -2t31.5 -24q0 -23 -19 -26h-5
q-179 -15 -180 15z" />
    <glyph glyph-name="F" unicode="F" horiz-adv-x="289" 
d="M75 108q0 108 -6 276q-1 35 -10 183t-9 215q0 7 7 12t21 7t24.5 3t27.5 2t21 1q7 0 23 1t25 0.5t19.5 -3t15.5 -11.5t5 -24t-137 -15l13 -196l91 1q10 0 18 -11t8 -21q0 -12 -23.5 -16.5t-49 -3t-41.5 -0.5l3 -58q6 -123 6 -330q0 -11 -6.5 -18t-16.5 -7q-24 0 -29 13z
" />
    <glyph glyph-name="G" unicode="G" horiz-adv-x="423" 
d="M220 22q-49 -3 -83 24.5t-52.5 84.5t-26.5 131.5t-8 177.5q0 49 7.5 98t32.5 103t65 73q29 10 69 11.5t75.5 -19.5t35.5 -58q0 -25 -22 -25q-16 0 -44.5 27t-55.5 27h-4q-33 -2 -56 -25t-33.5 -59.5t-15 -69t-4.5 -66.5v-20q1 -14 2.5 -55.5t2.5 -57.5t4 -47t7 -56
t10 -52q21 -97 95 -97h5q100 6 91 181l-8 148q-11 0 -41.5 -3.5t-48.5 -1.5q-12 8 -12 32q0 6 4 10.5t11 7t17 4.5t22 2.5t25 0.5h27h28q6 -2 10.5 -6t7.5 -11t5 -14t3 -19t1.5 -20.5t1 -24t0.5 -25.5v-10q2 -37 2.5 -60.5t-1 -63.5t-10 -66t-22 -53t-39 -41.5t-60.5 -16.5
h-20z" />
    <glyph glyph-name="H" unicode="H" horiz-adv-x="373" 
d="M264 59q4 149 -6 248q-70 16 -144 5v-259q0 -6 -9.5 -10t-15.5 -4q-24 0 -27 20l-12 711q0 38 26 38q7 0 21.5 -4t14.5 -10l1 -427q19 -3 76.5 -4t72.5 -3v42q0 71 -4 194t-4 180q0 32 17 32q36 0 39 -26l13 -718q0 -13 -10 -22t-24 -9h-5q-5 1 -11.5 10.5t-8.5 15.5z
" />
    <glyph glyph-name="I" unicode="I" horiz-adv-x="203" 
d="M51 758q0 12 13 14.5t26 -4.5t14 -18l44 -610q5 -47 5 -53q-1 -22 -34 -22q-23 0 -29 38l-25 439l-6 68t-6.5 80.5t-1.5 67.5z" />
    <glyph glyph-name="J" unicode="J" horiz-adv-x="333" 
d="M51 91q3 19 28 17q8 -1 23.5 -11t26.5 -10q18 0 31.5 23.5t17.5 44.5q10 45 17 92t10.5 103.5t5 92.5t3.5 107.5t3 99.5q2 109 6 135q0 2 1 6l1.5 6t1.5 5t2 4.5t3 3.5t4.5 2.5t5.5 0.5q40 -5 40 -32q-10 -93 -17.5 -290.5t-19.5 -280.5q-4 -29 -7 -47t-11.5 -45
t-19.5 -42.5t-30.5 -27.5t-44.5 -12q-9 0 -14 1q-26 3 -46.5 14.5t-20.5 33.5v6z" />
    <glyph glyph-name="K" unicode="K" horiz-adv-x="422" 
d="M84 13v76q0 449 -34 720q-1 10 12.5 16t28 0t17.5 -25l20 -400q42 78 63 148q15 66 26.5 142t13.5 85q0 1 2.5 10t6.5 13t11 4q21 -4 27.5 -12.5t6.5 -27.5q0 -57 -18 -127.5t-35.5 -116.5t-54.5 -132l-11 -26q55 -39 95.5 -83t63.5 -89.5t34.5 -80t20.5 -77.5
q6 -31 -28 -31q-14 0 -23.5 24t-20.5 62.5t-28.5 80t-57 84t-95.5 68.5q0 -30 3.5 -103.5t4 -115t-4.5 -99.5q-1 -7 -9 -7q-24 0 -37 20z" />
    <glyph glyph-name="L" unicode="L" horiz-adv-x="334" 
d="M50 795q7 15 20 15q11 0 20.5 -11t12.5 -24q2 -66 5.5 -212t8 -257t13.5 -213q79 21 120 21q34 0 34 -25q0 -22 -20 -29q-18 -6 -58 -10.5t-56 -9.5q-3 -1 -18.5 -7t-24.5 -6t-19.5 8.5t-11.5 18.5q-7 69 -9 199t-4 168l-13 247v127z" />
    <glyph glyph-name="M" unicode="M" horiz-adv-x="515" 
d="M50 56l11 456q7 277 43 277q3 0 4 -1t9 -4.5t15 -10.5t10 -18q1 -6 8 -34l10.5 -42t11 -41.5t14.5 -47t16.5 -43.5t20.5 -44.5t23 -37.5q10 8 65 108l5 8q59 107 86 180q9 18 29 18q16 -1 34 -15q-4 -120 -5 -345t-3 -322l-1 -48q-10 -24 -32 -24q-11 0 -23 14l1 59
q2 78 0.5 271.5t2.5 271.5q-48 -86 -69 -131q-25 -42 -59 -117q-4 -8 -12 -16t-18.5 -9.5t-17.5 15.5q-100 227 -104 227q-22 -181 -26 -549q-1 -8 -7.5 -13.5t-13.5 -5.5q-5 0 -15 4.5t-13 9.5z" />
    <glyph glyph-name="N" unicode="N" horiz-adv-x="444" 
d="M50 29l25 719q9 16 21.5 15.5t21 -8t15.5 -17.5q19 -54 75.5 -238.5t98.5 -287.5l10 140q13 146 11 361q6 25 38 25q20 0 28 -13q-20 -235 -33 -676l-1 -13q-2 -5 -10 -12t-14 -7t-15.5 6.5t-12.5 12.5l-93 267.5t-99 290.5l-7 -570q-17 -35 -37.5 -28t-21.5 33z" />
    <glyph glyph-name="O" unicode="O" horiz-adv-x="450" 
d="M83 192q-5 22 -10.5 52t-12.5 90t-9 115.5t4 118t23 108t52.5 75.5t86.5 30q53 0 94 -53t62 -132t25 -172.5t-10 -174.5t-50 -137t-89 -61q-2 0 -6 -0.5t-6 -0.5q-117 0 -154 142zM211 726q-43 -4 -68 -49.5t-31.5 -107.5t-4 -132t9.5 -121.5t14 -77.5q5 -22 15.5 -48.5
t31.5 -54.5t44 -30h4.5h4.5h3q67 6 98 170q7 36 8.5 105t-5.5 149.5t-37 138.5t-79 58h-8z" />
    <glyph glyph-name="P" unicode="P" horiz-adv-x="346" 
d="M50 17v4q6 733 7 773q15 20 47 20q92 0 142 -66t50 -162q0 -104 -43 -171t-135 -121l-7 -61q0 -6 -7 -218q-4 -13 -9 -17.5t-18 -4.5q-27 0 -27 24zM118 745l-7 -341v-43q7 0 19 6.5t15 9.5q47 37 65 84t18 113q0 179 -96 179q-11 0 -14 -8z" />
    <glyph glyph-name="Q" unicode="Q" horiz-adv-x="490" 
d="M310 55q-36 -47 -85 -47q-39 0 -69.5 24.5t-49 67t-30.5 88.5t-17 101t-7 91t-2 72q0 33 2 71.5t11 95.5t23 100.5t41 75.5t63 32q39 0 69.5 -22t49 -62t30.5 -82t17 -95t7 -88.5t2 -73.5q0 -147 -28 -287q35 -47 96 -102q7 -6 7 -21q-7 -22 -35 -22q-13 0 -13 2z
M111 408q0 -31 3.5 -77.5t13 -110.5t31.5 -107.5t53 -43.5q51 0 51 35q0 5 -1 6l-11 11l-18.5 18.5l-11.5 11.5q-2 3 -5.5 6t-5 4.5t-3.5 4t-3 4t-2 3.5t-1 4t-0.5 5t-0.5 6q0 25 32 25q7 0 13.5 -2t13.5 -7.5t10.5 -9t11 -12.5t9.5 -11q20 108 20 263q0 31 -4.5 79.5
t-15 112t-34.5 105t-56 35.5q-27 -5 -45.5 -38.5t-27 -81.5t-12 -85.5t-3.5 -67.5v-18t-0.5 -37t-0.5 -30z" />
    <glyph glyph-name="R" unicode="R" 
d="M64 42q1 45 1 198t-1 198q0 96 -7 260q0 32 -7 109v4q0 29 46 29q97 0 142 -59.5t45 -154.5q0 -123 -99 -194q41 -18 70.5 -55.5t44.5 -85.5t21.5 -93t6.5 -92q0 -25 -29 -25q-7 0 -10 0.5t-6.5 4t-5.5 11.5q-19 287 -140 287h-4q-5 -1 -6 -1q-6 -62 -6 -177t-3 -164
q-10 -14 -27 -14t-26 14zM100 772l19 -310q50 10 80 56.5t30 98.5q0 22 -5 48t-15 53t-29.5 44.5t-44.5 17.5q-35 0 -35 -8z" />
    <glyph glyph-name="S" unicode="S" horiz-adv-x="358" 
d="M51 120q1 9 10 16.5t20 7.5q18 -3 34 -30.5t36 -30.5q44 -7 62.5 16.5t26.5 72.5q3 21 3.5 41t-3 40t-7 36t-13 36.5l-15.5 34t-19.5 35.5l-20.5 33.5l-22 35.5q-45 70 -34 138q24 133 135 133q14 0 22 -1q23 -3 33.5 -10.5t7.5 -26.5q-3 -15 -22.5 -17.5t-41.5 -1
t-44 -19t-30 -68.5q-2 -13 -2.5 -25t1.5 -22.5t4.5 -19t8.5 -19.5t10.5 -18.5l13 -21t13.5 -22.5q34 -59 50.5 -92.5t27.5 -86t3 -103.5q-11 -65 -41 -97.5t-88 -32.5q-16 0 -24 1q-31 5 -63.5 29t-32.5 52q0 1 0.5 3.5t0.5 3.5z" />
    <glyph glyph-name="T" unicode="T" horiz-adv-x="403" 
d="M155 115q0 20 1.5 100.5t2.5 149t1 100.5q0 270 -2 272l-80 3q-16 5 -24 15t-1 20.5t30 16.5q26 -1 73 -1t86.5 -1t75.5 -4q30 -3 34 -27q3 -20 -13 -26q-4 -1 -8 -1l-109 2l-7 -447q0 -20 -2 -80.5t-2 -85.5v-13q-6 -22 -28.5 -18.5t-27.5 25.5z" />
    <glyph glyph-name="U" unicode="U" horiz-adv-x="445" 
d="M53 464q7 256 14 324q12 12 25 12q17 0 25 -12t8.5 -22.5t-0.5 -29.5v-6q-1 -50 -8 -149t-8 -149q0 -8 -2 -39.5t-3 -58.5t-1 -64.5t4.5 -67t12.5 -56t24 -41.5t38 -15q32 0 56 44.5t33 82.5q60 284 60 535v22q0 20 33 20q12 0 21.5 -9t9.5 -21l-1 -15q-18 -271 -49 -449
l-2 -13q0 -1 -1 -4.5t-2 -5.5q-4 -25 -8 -43t-12 -49.5t-19 -53.5t-26.5 -44.5t-37.5 -34.5t-49 -12q-36 0 -62.5 15.5t-40.5 37.5t-22 54.5t-10 58t-2 57.5v18q0 87 2 183z" />
    <glyph glyph-name="V" unicode="V" horiz-adv-x="455" 
d="M218 34q-22 89 -76 337.5t-91 382.5l-1 6q0 19 32 21q15 0 23 -8t10.5 -16t6.5 -28q47 -250 119 -557l101 568q2 10 11 17.5t20 8.5q31 0 32 -26l-112 -573q0 -2 -9 -42.5t-19 -72t-18 -31.5q-2 0 -3 -1q-2 0 -6 0.5t-6 1t-5 2t-5 4t-4 6.5z" />
    <glyph glyph-name="W" unicode="W" horiz-adv-x="595" 
d="M155 26l-26 261q-15 159 -78 476v9q0 31 22 31q37 0 37 -21q13 -91 38 -241q10 -61 24.5 -173t21.5 -159q9 30 32 131t28 130q2 12 18 24t31 12.5t21 -17.5l42 -189q5 -19 11.5 -60t11.5 -57q13 73 84 502q1 5 3.5 29.5t5.5 37t13 25.5t27 13q23 0 23 -26q0 -13 -1 -15
l-25 -136t-28 -155.5l-21.5 -129.5t-24 -156.5t-17.5 -138.5q-10 -26 -29 -26q-15 0 -23 12l-86 381l-70 -334q-1 -4 -2.5 -20t-3.5 -21.5t-9.5 -12t-20.5 -6.5q-19 0 -29 20z" />
    <glyph glyph-name="X" unicode="X" horiz-adv-x="432" 
d="M213 326l-110 -312q-3 -1 -19 -1q-33 0 -33 16v4q0 1 6 16t7 17l110 338v14q0 19 -12 58q-3 7 -28 78t-31 85q-3 8 -19.5 49.5t-19.5 48.5q-2 5 -5.5 12t-6 13.5t-2.5 13.5q0 14 5 17.5t20 3.5q8 0 14.5 -2.5t12 -8l9.5 -9.5t8.5 -13.5t6 -13.5l5.5 -14.5t5 -12.5
q4 -13 35 -99t36 -103l59 190q0 1 4 20t7 29t9.5 25t16 20.5t21.5 2.5q22 -6 19 -52l-58 -169q-39 -124 -39 -137v-39q0 -12 45 -137l40.5 -108.5t50.5 -146.5q-9 -20 -28 -20q-16 0 -24 8l-6 12q-2 4 -16.5 45.5t-16.5 46.5l-65 183q-10 32 -13 32z" />
    <glyph glyph-name="Y" unicode="Y" horiz-adv-x="392" 
d="M221 25q-5 42 -11 132.5t-13.5 164t-20.5 122.5q-99 198 -119 243q-18 39 7 50q17 9 29 -6q3 -3 4 -7l114 -240l67 265q2 13 18 18t31 -2.5t15 -22.5v-4l-99 -304l35 -406q0 -22 -27 -22q-26 0 -30 19z" />
    <glyph glyph-name="Z" unicode="Z" horiz-adv-x="380" 
d="M109 63h-2q-15 0 -24.5 12t-9.5 28q14 33 26 66.5l26.5 76.5l22 66.5t24 79.5l20.5 70l23.5 82.5t21.5 76.5q2 13 10 40.5t10 42.5q-32 1 -92.5 5.5t-87.5 5.5q-17 0 -24.5 24t19.5 34l258 -19l-183 -630q29 -1 83 0.5t74 1.5q15 0 20.5 -13.5t-1.5 -27.5t-22 -14
q-68 -5 -192 -8z" />
    <glyph glyph-name="backslash" unicode="\" horiz-adv-x="367" 
d="M317 17q0 -13 -7 -18t-23 -5q-13 0 -17 17q-29 87 -58 187l-63.5 225.5l-52.5 188.5q-5 18 -18 54.5t-20.5 65.5t-7.5 55q0 35 33 35l13 -1q2 -2 4 -16l2 -14q66 -271 214 -763v-5q1 -5 1 -6z" />
    <glyph glyph-name="underscore" unicode="_" horiz-adv-x="636" 
d="M76 -15q-17 2 -23 14t1 23.5t24 12.5q81 1 243 7.5t243 6.5q22 -7 21 -26.5t-23 -23.5q-81 -1 -243 -7t-243 -7z" />
    <glyph glyph-name="a" unicode="a" horiz-adv-x="399" 
d="M273 218h-148l-6 -6l-17 -113q0 -1 -1 -11.5t-2 -16t-4 -14t-9 -12.5t-14 -4q-9 0 -15.5 13.5t-6.5 22.5l105 727q12 47 37 47q22 0 31 -15l8 -21q27 -107 49.5 -238.5t33.5 -218.5t29 -243l6 -65l-1 -1v-1q-6 -16 -11.5 -21.5t-18.5 -5.5h-3q-16 0 -17 7zM198 744
l-58 -464l125 -3z" />
    <glyph glyph-name="b" unicode="b" horiz-adv-x="417" 
d="M50 778q32 37 82.5 43t90 -24.5t39.5 -88.5q0 -77 -54 -137q85 -53 122 -121t37 -169q0 -113 -61.5 -189t-174.5 -76q-26 0 -35 15q-5 65 -11.5 227t-14.5 261l-20 238v21zM149 77q6 -1 18 -1q50 0 83 32.5t45.5 76.5t12.5 96q0 60 -17.5 113.5t-60 93t-104.5 39.5
q0 -163 23 -450zM108 756l15 -165q37 0 61 34.5t24 78.5q0 42 -30 57t-70 -5z" />
    <glyph glyph-name="c" unicode="c" horiz-adv-x="380" 
d="M283 797q17 0 32 -10.5t15 -26.5q0 -8 -4.5 -14t-10.5 -9t-16 -4t-16 -1.5t-15 0t-10 0.5h-6q-34 0 -62.5 -32.5t-44.5 -82.5t-24.5 -102t-8.5 -97q0 -111 17.5 -176.5t78.5 -115.5q23 -19 72.5 -16.5t51.5 -9.5q14 -24 -3 -35.5t-46 -11.5q-65 1 -113.5 35t-74 87
t-37 119.5t-8.5 133t17 126.5q10 43 26 82.5t41.5 77.5t64 60.5t84.5 22.5z" />
    <glyph glyph-name="d" unicode="d" horiz-adv-x="372" 
d="M50 33v170q1 65 1 286t-1 285v4q0 42 29 54h9q72 0 112 -36q134 -120 121 -404q-15 -372 -218 -397q-27 -3 -40 4.5t-13 33.5zM114 768q-7 -196 -7 -372q0 -27 -0.5 -99.5t-0.5 -135.5t1 -108q44 7 76.5 43t49.5 87.5t24.5 101t7.5 95.5q0 29 -1 57t-5 77.5t-14 90
t-25 79.5t-40.5 61.5t-58.5 22.5h-7z" />
    <glyph glyph-name="e" unicode="e" horiz-adv-x="334" 
d="M61 32l-11 698q0 14 11 24.5t24 10.5h158q4 0 15 -8t12 -12q1 -2 1 -5q0 -14 -14 -21.5t-29 -7.5h-120l5 -332l108 16h5q28 0 28 -18q0 -19 -24 -30q-7 -3 -15 -4l-100 -15l-3 -261q9 -1 52 -1q16 0 37 2t33.5 3t24.5 0t17.5 -8t6.5 -20q1 -16 -54.5 -22t-111.5 -2
t-56 13z" />
    <glyph glyph-name="f" unicode="f" horiz-adv-x="320" 
d="M51 705v2q0 80 115 87q3 0 20 1t28 0.5t25.5 -3t22 -9.5t8.5 -19q0 -17 -27 -19q-2 0 -16.5 1t-23 1t-24 -0.5t-25.5 -3.5t-20.5 -7t-15.5 -12.5t-5 -19.5v-8q9 -144 16 -202q22 -3 56 -1q3 0 13.5 2.5t20 4t19 1.5t15.5 -5t6 -15q0 -21 -25.5 -29.5t-60.5 -10t-41 -3.5
q-4 -60 7.5 -174.5t11.5 -165.5v-4q0 -20 -11.5 -26.5t-24.5 0.5t-16 22q-12 99 -28.5 292t-19.5 323z" />
    <glyph glyph-name="g" unicode="g" horiz-adv-x="421" 
d="M51 387v14q0 47 2.5 89t13.5 99t29.5 98t54 71t83.5 33l8 1q34 0 72.5 -18.5t38.5 -44.5q0 -5 -3 -13q-6 -14 -13.5 -16.5t-18 4t-21.5 15t-27.5 17t-31.5 10.5h-5q-125 -16 -125 -302v-22l2 -109q2 -32 7.5 -64.5t17.5 -72.5t35 -64.5t55 -24.5h4q67 4 79 186
q9 74 7 106q-1 27 -29.5 27.5t-57.5 -0.5t-30 21q0 28 45 28l18 1q110 5 110 -38v-19q-3 -94 -11 -158q-4 -40 -10.5 -69.5t-20.5 -62.5t-40.5 -51.5t-64.5 -20.5h-8q-162 0 -165 350z" />
    <glyph glyph-name="h" unicode="h" horiz-adv-x="366" 
d="M250 316h-143v-282q0 -20 -14 -26t-28 -1t-15 12q0 18 1 119t1 118q0 34 1.5 154t4 250.5t2.5 153.5q8 8 28 8q15 0 31 -21q0 -47 -4.5 -165t-4.5 -170q0 -78 1 -91q6 -7 24 -7q76 0 113 -2q14 204 9 435v5q0 22 26 22q19 0 33 -20q0 -23 -4 -107q-7 -230 -4.5 -383.5
t0 -231t-17.5 -77.5q-9 0 -15 2.5t-9.5 10.5t-6 15.5t-3.5 23t-1 25.5v32q0 9 -2.5 99t-2.5 99z" />
    <glyph glyph-name="i" unicode="i" horiz-adv-x="189" 
d="M50 19l27 742q5 14 10.5 17.5t22.5 3.5q20 0 24.5 -8.5t4.5 -33.5q0 -2 -0.5 -9.5t-0.5 -8.5l-30 -684q-1 -30 -28 -37q-23 -5 -29 11q-1 3 -1 7z" />
    <glyph glyph-name="j" unicode="j" horiz-adv-x="335" 
d="M51 57q1 21 27 21h5q13 -1 19.5 -6.5t7 -12t5.5 -12t16 -5.5q27 0 45 62t25 155t10.5 184t4.5 169t3 90q1 10 1.5 24.5t1.5 20t6 12t16 10.5h4q25 -1 32 -12.5t8 -38.5l-11 -182q-15 -318 -36 -411q-23 -105 -79 -124q-16 -5 -35 -5h-8q-26 2 -47 18t-21 43z" />
    <glyph glyph-name="k" unicode="k" horiz-adv-x="403" 
d="M78 16l-28 773q0 13 8 21t20 8q29 0 30 -38l10 -334q106 212 134 310q1 5 4 17.5t5 19t6.5 15t12 12.5t17.5 4q9 0 16 -3t13 -14.5t-2 -32.5l-162 -374l187 -347q8 -13 1 -29t-26 -16q-18 0 -26 13q-16 29 -77.5 153t-100.5 184v-8q0 -13 6.5 -138t6.5 -198
q-5 -13 -18 -20.5t-24.5 -2t-12.5 24.5z" />
    <glyph glyph-name="l" unicode="l" horiz-adv-x="349" 
d="M279 40l-203 -30l-4 131q-3 131 -6 276t-3 177q0 11 -6.5 99.5t-6.5 91.5v7q0 11 7 18q6 2 19 2h12t8 -2t7.5 -6.5t4.5 -12.5q4 -18 5 -32.5t1 -37v-32.5q12 -502 19 -617h7q21 0 62 7t63 7q34 0 34 -24q0 -19 -20 -22z" />
    <glyph glyph-name="m" unicode="m" horiz-adv-x="496" 
d="M389 34q4 264 -13 604l-108 -266q-1 -14 -26 -17.5t-31 4.5q-5 5 -7 12q-61 196 -82 249q-8 -84 -7.5 -283.5t-12.5 -283.5q-11 -7 -31 -7q-15 0 -17.5 4t-2.5 20q0 6 1 23t2 50t2.5 107t2 193.5t-0.5 310.5q0 23 24.5 33.5t33.5 -13.5l122 -334q16 19 73 178t65 173
q14 29 57 0q4 0 7 -471q0 -38 3 -130.5t3 -141.5q0 -14 -8.5 -24t-22.5 -10q-12 0 -16.5 4t-9.5 16z" />
    <glyph glyph-name="n" unicode="n" horiz-adv-x="469" 
d="M50 32l12 704q-1 20 13 32.5t32.5 6.5t28.5 -33l204 -553q5 227 15 388q1 17 1.5 56t2.5 67.5t8 53.5q0 11 26 11q18 -1 22 -4.5t3 -19.5q-2 -54 -11 -158t-11 -154q-12 -348 -12 -393q-6 -15 -22.5 -10.5t-23.5 18.5q-12 26 -230 608l-7 -614q0 -14 -12.5 -19.5
t-25.5 -1t-13 14.5z" />
    <glyph glyph-name="o" unicode="o" horiz-adv-x="437" 
d="M50 448q0 34 1 60.5t5 66t11.5 69t21.5 62t33 53.5t48 35t66 14q43 -5 73.5 -39.5t45.5 -91.5t23.5 -114.5t8 -130t-2 -114.5t-5.5 -89q-3 -31 -12 -62.5t-25 -64t-44 -53t-63 -20.5q-185 0 -185 419zM108 540q-1 -32 -1 -88q0 -206 33 -289.5t92 -83.5q99 0 99 317v4
q0 37 -5 89.5t-17 116.5t-36.5 107.5t-57.5 43.5q-26 0 -48 -26.5t-34 -64t-18.5 -71.5t-6.5 -55z" />
    <glyph glyph-name="p" unicode="p" horiz-adv-x="328" 
d="M50 -12v259q0 254 7 534q4 12 42 12q76 0 127.5 -57.5t51.5 -134.5q0 -82 -49.5 -161.5t-123.5 -113.5q-5 -80 -5 -110q-1 -25 -1 -110.5t1 -110.5q-8 -13 -31 -13q-9 0 -19 6zM110 740l-7 -347q14 0 21 7q92 84 92 194q0 47 -29.5 96.5t-76.5 49.5z" />
    <glyph glyph-name="q" unicode="q" horiz-adv-x="480" 
d="M50 369q0 283 103 404q35 41 77 44.5t74 -26.5q56 -93 75.5 -218.5t11 -235t-35.5 -225.5l70 -48q9 -17 -0.5 -27.5t-21.5 -10.5l-69 37q-36 -55 -96.5 -64t-107.5 40q-43 39 -61.5 140t-18.5 190zM244 761q-3 1 -9 1q-41 0 -74 -74t-45 -179.5t-9 -211t33 -179.5t80 -74
h6q19 2 36.5 18.5t17.5 34.5q0 14 -27 28.5t-27 28.5q0 11 7 19q7 0 14.5 -2t16 -6.5t14 -7t16 -9t13.5 -8.5q61 328 -15 559q-22 62 -48 62z" />
    <glyph glyph-name="r" unicode="r" horiz-adv-x="334" 
d="M50 5v84q0 152 14 677q1 32 13 39t46 7h10q69 0 110 -41t41 -107v-11q0 -145 -85 -203q23 -23 32 -39q20 -27 28 -73t9.5 -119t1.5 -79q0 -3 3 -29t3 -29v-8q0 -19 -29 -19h-1q-24 0 -28 14q-1 33 -12 220q-9 116 -75 116h-16q-6 -27 -6 -58q-4 -33 -7 -316v-7v-7.5
t-0.5 -6t-1 -6.5t-2.5 -5t-4 -4.5t-5.5 -2.5t-8.5 -1q-20 0 -30 14zM115 485q0 -9 13 -9q25 0 45 21t31 51t16.5 57.5t5.5 47.5q0 41 -20 74t-59 33q-25 0 -25 -26q1 -45 -3 -126t-4 -123z" />
    <glyph glyph-name="s" unicode="s" horiz-adv-x="336" 
d="M56 163q0 13 13.5 23t25.5 6q16 -5 19 -31t7.5 -56t25.5 -42h6q37 0 54.5 38.5t17.5 79.5q0 105 -27 166q-16 37 -56.5 98t-66 115t-25.5 109q0 50 28 99.5t75 49.5q38 0 77.5 -25.5t39.5 -61.5q0 -30 -26 -30q-13 0 -21.5 9.5t-13.5 20.5t-17 20.5t-30 9.5
q-55 0 -55 -106q0 -45 21 -87.5t58 -92.5t51 -76q32 -60 43.5 -133t-5.5 -132q-14 -46 -47 -84.5t-75 -38.5q-50 0 -73.5 48t-23.5 104z" />
    <glyph glyph-name="t" unicode="t" horiz-adv-x="349" 
d="M162 112l-20 633q-46 -4 -68.5 -1t-23.5 15q1 20 5.5 27.5t27 11.5t73.5 1h84q59 -3 59 -33q0 -7 -6.5 -13t-13.5 -6h-84l19 -635q0 -6 -10 -10t-16 -4t-16 4t-10 10z" />
    <glyph glyph-name="u" unicode="u" horiz-adv-x="376" 
d="M326 247q-1 -31 -1.5 -45t-4 -41t-10 -40.5t-18 -29.5t-30 -23t-43.5 -7q-6 0 -24 2q-85 10 -116 225q-17 120 -26 444l-2 49v5q0 16 27.5 16t32.5 -15q4 -8 5.5 -118t4.5 -233.5t28 -226t72 -102.5q23 0 34.5 27.5t12.5 56.5q6 228 -4 596q4 12 9.5 15t19.5 3
q30 0 31 -20q2 -88 1 -266t1 -272z" />
    <glyph glyph-name="v" unicode="v" horiz-adv-x="414" 
d="M172 40q-29 134 -65 397.5t-57 377.5q5 7 22.5 12.5t23.5 -0.5q3 -2 10.5 -9t8.5 -10l85 -616q18 99 52 307.5l48 289.5q0 23 8 31t24 8q24 0 32 -20q-12 -47 -23 -96t-22 -108.5l-17 -94t-18 -109t-16 -97.5l-39 -257q-7 -19 -31 -19q-22 0 -26 13z" />
    <glyph glyph-name="w" unicode="w" horiz-adv-x="569" 
d="M291 344q-7 -79 -25.5 -178.5t-22.5 -128.5q0 -1 -1 -3q-8 -31 -19 -38q-6 -4 -16 -5q-11 -1 -14.5 0.5t-10.5 10.5l-13 66q-8 50 -25.5 168.5l-31 205.5t-28.5 168q-15 77 -33 125l-1 5q0 21 30 24t34 -16q13 -60 27 -139t29.5 -176t23.5 -141l19 -110q9 35 15.5 70.5
t13.5 93t8 67.5q3 25 33 29q21 2 29 -10l111 -276q6 197 36 628q8 20 32 20t27 -24q2 -19 -5 -72t-7 -59q-8 -95 -12.5 -199t-8.5 -235.5t-7 -198.5q-4 -4 -7 -10.5t-7 -9t-13 -3.5h-7q-9 0 -15 4.5t-8 8.5t-5.5 15.5t-5.5 16.5z" />
    <glyph glyph-name="x" unicode="x" horiz-adv-x="467" 
d="M221 350q-21 -97 -73 -308q-7 -26 -29 -27h-4q-23 0 -23 17q-1 8 5 31q32 116 94 364l-138 303q0 2 -1 7l-1 5q0 20 34 20q21 0 32 -23q16 -34 82 -196l5 -12q0 -5 7 -12q9 32 34.5 142t36.5 143q3 8 21 8h2q36 2 37 -24l-95 -351q24 -71 88 -221l73 -155q8 -18 8 -23
q0 -10 -11 -18t-23 -8q-14 0 -23 17l-97 230q-37 89 -41 91z" />
    <glyph glyph-name="y" unicode="y" horiz-adv-x="435" 
d="M161 -5q0 2 0.5 6.5t0.5 8.5q1 20 5 114.5l7 168t3 91.5l-85 231q-19 42 -35 91q-7 15 -7 24q2 17 24 17q32 0 42 -21q8 -24 38.5 -125.5t52.5 -150.5q5 4 31 61.5l49.5 114t22.5 56.5q2 5 5.5 18.5t6.5 20t11.5 13t20.5 6.5q30 -2 30 -19v-7q-17 -46 -73 -158.5
t-73 -175.5l-18 -381q-1 -20 -34 -18h-2q-20 2 -23 14z" />
    <glyph glyph-name="z" unicode="z" horiz-adv-x="373" 
d="M120 56v5q0 10 3.5 25.5t8.5 33t6 22.5q21 100 50.5 299t48.5 297h-147q-37 0 -39 18q-1 10 6 21.5t25 11.5q34 0 98 1t96 1q12 0 17 -4.5t7 -16.5l-116 -685q15 0 49.5 6.5t50.5 6.5q39 0 39 -26q0 -8 -7 -14t-18.5 -9t-22 -5t-22.5 -2.5t-15 -1.5q-12 -2 -29.5 -5.5
t-29 -5.5t-24.5 -2q-12 0 -22.5 8.5t-12.5 20.5z" />
    <glyph glyph-name="exclamdown" unicode="&#xa1;" horiz-adv-x="205" 
d="M155 20q-5 -12 -10 -16t-16 -4q-31 0 -34 20q-6 90 -6 101q0 103 -11 266.5t-11 267.5q0 31 19 31q15 0 23 -12.5t9 -22.5t2 -28v-5q5 -82 9 -195.5t9.5 -207.5t16.5 -195zM129 765q0 -9 -12.5 -19.5t-21.5 -10.5q-20 0 -32.5 14t-12.5 35q0 25 40 25q39 0 39 -44z" />
    <glyph glyph-name="sterling" unicode="&#xa3;" horiz-adv-x="480" 
d="M430 67q0 -23 -11 -25q-39 2 -112.5 -2t-102.5 -4h-74q-8 0 -16.5 11.5t-9.5 21.5q2 6 5 45t4.5 75.5t0.5 36.5q-64 0 -64 28q0 15 21 15h47q1 28 4 96.5l4.5 103t5.5 84.5t9 87q4 29 7 47t11.5 45t19.5 42.5t30.5 27.5t44.5 12q9 0 14 -1q26 -3 46.5 -14.5t20.5 -33.5
v-6q-3 -19 -28 -17q-8 1 -23.5 11t-26.5 10q-18 0 -31.5 -23.5t-17.5 -44.5q-14 -64 -22 -145.5t-10 -130.5t-5 -153q39 -1 77 0q28 -6 28 -29q0 -7 -12 -12q-14 -3 -94 -1q0 -16 -1 -24q-3 -105 -4 -117l249 15q16 0 16 -31z" />
    <glyph glyph-name="ordfeminine" unicode="&#xaa;" horiz-adv-x="347" 
d="M296 607q-2 -38 -19 -52q-16 -13 -32 19q-43 -22 -99 -22q-96 0 -96 78q0 34 31.5 72.5t71.5 47.5q18 4 29 4.5t27 -0.5t27 -1q0 2 2 15.5t1 15.5q-4 24 -20.5 42.5t-42.5 20.5q-20 2 -36.5 -12.5t-31 -30t-28.5 -15.5q-24 0 -24 23q0 28 41.5 51.5t76.5 23.5
q60 0 90 -41t32 -96q1 -16 1 -71t-1 -72zM102 627q0 -19 10 -27t33 -8q48 0 74 27t26 69v13q-18 10 -45 11.5t-47 -6.5q-21 -11 -36 -34.5t-15 -44.5z" />
    <glyph glyph-name="guillemotleft" unicode="&#xab;" horiz-adv-x="510" 
d="M61 323q-17 25 -7 46l197 132q25 10 34.5 -10.5t-12.5 -34.5l-171 -104l157 -117q20 -16 9 -34.5t-35 -8.5zM233 317q-17 25 -7 46l197 132q25 10 34.5 -10.5t-12.5 -34.5l-171 -104l157 -117q20 -16 9 -34.5t-35 -8.5z" />
    <glyph glyph-name="ordmasculine" unicode="&#xba;" horiz-adv-x="326" 
d="M97 881q44 28 78 24.5t56.5 -32t34 -67.5t10 -83t-15.5 -78q-16 -38 -50.5 -57t-79.5 -6q-50 13 -69 79t-7 132.5t43 87.5zM187 847q-26 12 -43 4t-26.5 -33.5t-13.5 -48.5t-4 -41v-6q1 -33 13.5 -64.5t40.5 -31.5q4 0 12 2q31 8 49 54t11 96.5t-39 68.5z" />
    <glyph glyph-name="guillemotright" unicode="&#xbb;" horiz-adv-x="510" 
d="M277 317l-172 -131q-24 -10 -35 8.5t9 34.5l157 117l-171 104q-22 14 -12.5 34.5t34.5 10.5l197 -132q10 -21 -7 -46zM449 323l-172 -131q-24 -10 -35 8.5t9 34.5l157 117l-171 104q-22 14 -12.5 34.5t34.5 10.5l197 -132q10 -21 -7 -46z" />
    <glyph glyph-name="questiondown" unicode="&#xbf;" horiz-adv-x="358" 
d="M223 610v-105v-31v-33t-0.5 -30.5t-2.5 -33t-5 -29.5t-7.5 -32t-11.5 -29q-9 -19 -31.5 -57t-35.5 -69t-13 -63q0 -50 45 -50q23 0 41.5 15.5t29 34.5t25 34.5t29.5 15.5q22 0 22 -28q0 -50 -47 -87.5t-95 -37.5t-82 28t-34 75q0 39 17.5 82t39 75t39 75t17.5 82v198
q0 14 23 14q29 0 37 -14zM223 719v-17q-8 -7 -26 -7q-26 0 -33.5 10.5t-7.5 37.5q0 1 0.5 12.5t0.5 13.5q1 7 23 7q25 0 34 -14t9 -43z" />
    <glyph glyph-name="Agrave" unicode="&#xc0;" 
d="M51 2l44 746q3 43 20 55.5t36 -4.5t27 -51q27 -106 153 -721q0 -18 -17.5 -23.5t-30.5 16.5l-36 180l-135 -20q-12 -70 -17 -178q-1 -11 -12 -14.5t-21.5 1t-10.5 13.5zM139 691q-20 -303 -25 -409q-2 -14 -2 -54l125 18zM184 882q0 -10 -7 -16.5t-17 -6.5q-8 0 -14 5
l-37 28l-51 32q-5 3 -5 12q0 10 9 17.5t19 7.5q7 -3 9 -4l65 -42q29 -19 29 -33z" />
    <glyph glyph-name="Aacute" unicode="&#xc1;" 
d="M51 2l44 746q3 43 20 55.5t36 -4.5t27 -51q27 -106 153 -721q0 -18 -17.5 -23.5t-30.5 16.5l-36 180l-135 -20q-12 -70 -17 -178q-1 -11 -12 -14.5t-21.5 1t-10.5 13.5zM139 691q-20 -303 -25 -409q-2 -14 -2 -54l125 18zM62 900q0 14 29 33l65 42l9 4q10 0 19 -7.5
t9 -17.5q0 -9 -5 -12l-51 -32l-37 -28q-6 -5 -14 -5q-10 0 -17 6.5t-7 16.5z" />
    <glyph glyph-name="Acircumflex" unicode="&#xc2;" 
d="M51 2l44 746q3 43 20 55.5t36 -4.5t27 -51q27 -106 153 -721q0 -18 -17.5 -23.5t-30.5 16.5l-36 180l-135 -20q-12 -70 -17 -178q-1 -11 -12 -14.5t-21.5 1t-10.5 13.5zM139 691q-20 -303 -25 -409q-2 -14 -2 -54l125 18zM11 843q0 7 1 8q9 18 39.5 50.5t35.5 39.5
q2 2 7.5 11.5t11 16t11.5 6.5q4 0 7.5 -1t7 -3.5t6 -4.5t6 -6.5t5 -6t5 -6.5t3.5 -6q27 -34 38 -52q1 -2 9.5 -11l15.5 -17t8 -10q5 -5 5 -15q0 -14 -13 -14q-6 0 -16 5q-16 16 -41.5 49t-37.5 46q-6 -6 -26.5 -33t-39 -47.5t-26.5 -20.5q-9 0 -15.5 6t-6.5 16z" />
    <glyph glyph-name="Atilde" unicode="&#xc3;" 
d="M51 2l44 746q3 43 20 55.5t36 -4.5t27 -51q27 -106 153 -721q0 -18 -17.5 -23.5t-30.5 16.5l-36 180l-135 -20q-12 -70 -17 -178q-1 -11 -12 -14.5t-21.5 1t-10.5 13.5zM139 691q-20 -303 -25 -409q-2 -14 -2 -54l125 18zM80 906q-16 0 -28 -25.5t-20 -25.5
q-10 0 -20 5.5t-10 14.5q0 26 22 49.5t47 23.5q24 0 45 -15t34 -30.5t18 -15.5q17 0 24.5 7.5t7.5 16.5t3.5 16.5t12.5 7.5q27 0 27 -34q0 -27 -16.5 -41.5t-45.5 -14.5q-26 0 -44.5 15.5t-31.5 30.5t-25 15z" />
    <glyph glyph-name="Adieresis" unicode="&#xc4;" 
d="M51 2l44 746q3 43 20 55.5t36 -4.5t27 -51q27 -106 153 -721q0 -18 -17.5 -23.5t-30.5 16.5l-36 180l-135 -20q-12 -70 -17 -178q-1 -11 -12 -14.5t-21.5 1t-10.5 13.5zM139 691q-20 -303 -25 -409q-2 -14 -2 -54l125 18zM9 891q0 9 12.5 19.5t21.5 10.5q20 0 32.5 -14
t12.5 -35q0 -25 -40 -25q-39 0 -39 44zM141 901q0 9 10.5 19.5t18.5 10.5q17 0 27.5 -14t10.5 -36q0 -26 -34 -26q-33 0 -33 46z" />
    <glyph glyph-name="Aring" unicode="&#xc5;" 
d="M36 866q0 48 24.5 75.5t71.5 27.5q33 0 54.5 -21.5t21.5 -55.5q0 -35 -14 -61t-41 -35q18 -20 25 -48q27 -106 153 -721q0 -18 -17.5 -23.5t-30.5 16.5l-36 180l-135 -20q-12 -70 -17 -178q-1 -11 -12 -14.5t-21.5 1t-10.5 13.5l44 746q1 29 11 45q-31 4 -50.5 23
t-19.5 50zM139 691q-20 -303 -25 -409q-2 -14 -2 -54l125 18zM74 866q0 -16 10.5 -24.5t27.5 -8.5q26 0 40.5 15.5t14.5 41.5q0 41 -30 41q-27 0 -45 -19t-18 -46z" />
    <glyph glyph-name="AE" unicode="&#xc6;" horiz-adv-x="544" 
d="M323 760q-99 0 -149 -2l3 -10q18 -70 94 -436l11 -52h10l6 1q8 0 32 3t50.5 7.5t29.5 4.5h5q25 0 36 -19q10 -19 -15 -25q-2 -1 -5 -1l-139 -21l32 -154h19v-5q7 -2 47.5 1t72 -2t31.5 -24q0 -23 -19 -26h-12q-122 -10 -160 2q-12 2 -21 18l-36 180l-135 -20
q-12 -70 -17 -178q-1 -11 -12 -14.5t-21.5 1t-10.5 13.5l44 746q4 57 45 57q196 15 196 -20q0 -20 -12 -25zM138 691q-20 -303 -25 -409q-2 -14 -2 -54l125 18z" />
    <glyph glyph-name="Ccedilla" unicode="&#xc7;" horiz-adv-x="428" 
d="M143 -87q0 22 14 22t26.5 -12t27.5 -12q44 0 44 31q0 15 -9.5 20.5t-23.5 6.5t-27.5 5t-23 21t-9.5 49v22q-41 24 -67 73.5t-34 103t-10.5 110.5t4.5 96q2 43 12 92t30.5 103.5t60 90t91.5 35.5h7q35 -2 61.5 -20t26.5 -52q0 -22 -17 -22q-16 0 -36 21.5t-39 24.5h-2
q-2 1 -4 1q-40 0 -75 -64.5t-50.5 -157.5t-14 -186.5t37.5 -160t101 -69.5h5q24 0 38 14.5t18 32t15 32t30 14.5h3q24 0 24 -22q0 -8 -2 -12.5t-6 -12t-7 -14.5q-35 -74 -112 -74h-9q-18 0 -36 5v-30q56 -5 79 -53q21 -43 -4 -74q-24 -30 -80 -21q-10 0 -34 16.5t-24 26.5z
" />
    <glyph glyph-name="Egrave" unicode="&#xc8;" horiz-adv-x="319" 
d="M65 93l-1 49v198q0 72 -7 189t-7 189v51q78 8 117.5 5.5t50 -8t10.5 -17.5q0 -20 -12 -25h-109q-7 0 -7 -8q0 -47 2.5 -93.5t7 -104.5t6.5 -95q4 -1 116 -1q23 -1 34 -25t-10 -32q-5 -2 -13 -2h-127l2 -234q7 -2 47.5 1t72 -2t31.5 -24q0 -23 -19 -26h-5
q-179 -15 -180 15zM195 888q0 -10 -7 -16.5t-17 -6.5q-8 0 -14 5l-37 28l-51 32q-5 3 -5 12q0 10 9 17.5t19 7.5q7 -3 9 -4l65 -42q29 -19 29 -33z" />
    <glyph glyph-name="Eacute" unicode="&#xc9;" horiz-adv-x="319" 
d="M65 93l-1 49v198q0 72 -7 189t-7 189v51q78 8 117.5 5.5t50 -8t10.5 -17.5q0 -20 -12 -25h-109q-7 0 -7 -8q0 -47 2.5 -93.5t7 -104.5t6.5 -95q4 -1 116 -1q23 -1 34 -25t-10 -32q-5 -2 -13 -2h-127l2 -234q7 -2 47.5 1t72 -2t31.5 -24q0 -23 -19 -26h-5
q-179 -15 -180 15zM93 888q0 14 29 33l65 42l9 4q10 0 19 -7.5t9 -17.5q0 -9 -5 -12l-51 -32l-37 -28q-6 -5 -14 -5q-10 0 -17 6.5t-7 16.5z" />
    <glyph glyph-name="Ecircumflex" unicode="&#xca;" horiz-adv-x="319" 
d="M65 93l-1 49v198q0 72 -7 189t-7 189v51q78 8 117.5 5.5t50 -8t10.5 -17.5q0 -20 -12 -25h-109q-7 0 -7 -8q0 -47 2.5 -93.5t7 -104.5t6.5 -95q4 -1 116 -1q23 -1 34 -25t-10 -32q-5 -2 -13 -2h-127l2 -234q7 -2 47.5 1t72 -2t31.5 -24q0 -23 -19 -26h-5
q-179 -15 -180 15zM11 845q0 7 1 8q9 18 39.5 50.5t35.5 39.5q2 2 7.5 11.5t11 16t11.5 6.5q4 0 7.5 -1t7 -3.5t6 -4.5t6 -6.5t5 -6t5 -6.5t3.5 -6q27 -34 38 -52q1 -2 9.5 -11l15.5 -17t8 -10q5 -5 5 -15q0 -14 -13 -14q-6 0 -16 5q-16 16 -41.5 49t-37.5 46
q-6 -6 -26.5 -33t-39 -47.5t-26.5 -20.5q-9 0 -15.5 6t-6.5 16z" />
    <glyph glyph-name="Edieresis" unicode="&#xcb;" horiz-adv-x="319" 
d="M65 93l-1 49v198q0 72 -7 189t-7 189v51q78 8 117.5 5.5t50 -8t10.5 -17.5q0 -20 -12 -25h-109q-7 0 -7 -8q0 -47 2.5 -93.5t7 -104.5t6.5 -95q4 -1 116 -1q23 -1 34 -25t-10 -32q-5 -2 -13 -2h-127l2 -234q7 -2 47.5 1t72 -2t31.5 -24q0 -23 -19 -26h-5
q-179 -15 -180 15zM24 889q0 9 12.5 19.5t21.5 10.5q20 0 32.5 -14t12.5 -35q0 -25 -40 -25q-39 0 -39 44zM156 899q0 9 10.5 19.5t18.5 10.5q17 0 27.5 -14t10.5 -36q0 -26 -34 -26q-33 0 -33 46z" />
    <glyph glyph-name="Igrave" unicode="&#xcc;" horiz-adv-x="203" 
d="M51 758q0 12 13 14.5t26 -4.5t14 -18l44 -610q5 -47 5 -53q-1 -22 -34 -22q-23 0 -29 38l-25 439l-6 68t-6.5 80.5t-1.5 67.5zM128 859q0 -10 -7 -16.5t-17 -6.5q-8 0 -14 5l-37 28l-51 32q-5 3 -5 12q0 10 9 17.5t19 7.5q7 -3 9 -4l65 -42q29 -19 29 -33z" />
    <glyph glyph-name="Iacute" unicode="&#xcd;" horiz-adv-x="203" 
d="M51 758q0 12 13 14.5t26 -4.5t14 -18l44 -610q5 -47 5 -53q-1 -22 -34 -22q-23 0 -29 38l-25 439l-6 68t-6.5 80.5t-1.5 67.5zM-2 869q0 14 29 33l65 42l9 4q10 0 19 -7.5t9 -17.5q0 -9 -5 -12l-51 -32l-37 -28q-6 -5 -14 -5q-10 0 -17 6.5t-7 16.5z" />
    <glyph glyph-name="Icircumflex" unicode="&#xce;" horiz-adv-x="203" 
d="M51 758q0 12 13 14.5t26 -4.5t14 -18l44 -610q5 -47 5 -53q-1 -22 -34 -22q-23 0 -29 38l-25 439l-6 68t-6.5 80.5t-1.5 67.5zM-55 856q0 7 1 8q9 18 39.5 50.5t35.5 39.5q2 2 7.5 11.5t11 16t11.5 6.5q4 0 7.5 -1t7 -3.5t6 -4.5t6 -6.5t5 -6t5 -6.5t3.5 -6
q27 -34 38 -52q1 -2 9.5 -11l15.5 -17t8 -10q5 -5 5 -15q0 -14 -13 -14q-6 0 -16 5q-16 16 -41.5 49t-37.5 46q-6 -6 -26.5 -33t-39 -47.5t-26.5 -20.5q-9 0 -15.5 6t-6.5 16z" />
    <glyph glyph-name="Idieresis" unicode="&#xcf;" horiz-adv-x="203" 
d="M51 758q0 12 13 14.5t26 -4.5t14 -18l44 -610q5 -47 5 -53q-1 -22 -34 -22q-23 0 -29 38l-25 439l-6 68t-6.5 80.5t-1.5 67.5zM-40 900q0 9 12.5 19.5t21.5 10.5q20 0 32.5 -14t12.5 -35q0 -25 -40 -25q-39 0 -39 44zM92 910q0 9 10.5 19.5t18.5 10.5q17 0 27.5 -14
t10.5 -36q0 -26 -34 -26q-33 0 -33 46z" />
    <glyph glyph-name="Eth" unicode="&#xd0;" horiz-adv-x="422" 
d="M76 391q-17 2 -23 14t1 23.5t24 12.5q20 0 30 -1l6 148q1 9 2.5 91t1.5 91l1 6q1 11 15 16.5t29 5.5h4q205 -9 205 -365q0 -8 -0.5 -22.5t-0.5 -20.5q-9 -343 -229 -343q-23 0 -43 4q1 112 2 158q1 61 5 181q-10 1 -30 1zM175 742l-11 -305q50 -2 74 -2q22 -7 21 -26.5
t-23 -23.5q-24 0 -74 2l-10 -296q8 -1 11 -1q44 0 76 33t47 86.5t21 94t8 82.5q5 35 0 93.5t-15 115t-43 100t-82 47.5z" />
    <glyph glyph-name="Ntilde" unicode="&#xd1;" horiz-adv-x="444" 
d="M50 29l25 719q9 16 21.5 15.5t21 -8t15.5 -17.5q19 -54 75.5 -238.5t98.5 -287.5l10 140q13 146 11 361q6 25 38 25q20 0 28 -13q-20 -235 -33 -676l-1 -13q-2 -5 -10 -12t-14 -7t-15.5 6.5t-12.5 12.5l-93 267.5t-99 290.5l-7 -570q-17 -35 -37.5 -28t-21.5 33zM193 869
q-16 0 -28 -25.5t-20 -25.5q-10 0 -20 5.5t-10 14.5q0 26 22 49.5t47 23.5q24 0 45 -15.5t34 -30.5t18 -15q17 0 24.5 7.5t7.5 16.5t3.5 16.5t12.5 7.5q27 0 27 -34q0 -27 -16.5 -41.5t-45.5 -14.5q-20 0 -36.5 9.5t-25 21t-19 21t-20.5 9.5z" />
    <glyph glyph-name="Ograve" unicode="&#xd2;" horiz-adv-x="450" 
d="M83 192q-5 22 -10.5 52t-12.5 90t-9 115.5t4 118t23 108t52.5 75.5t86.5 30q53 0 94 -53t62 -132t25 -172.5t-10 -174.5t-50 -137t-89 -61q-2 0 -6 -0.5t-6 -0.5q-117 0 -154 142zM211 726q-43 -4 -68 -49.5t-31.5 -107.5t-4 -132t9.5 -121.5t14 -77.5q5 -22 15.5 -48.5
t31.5 -54.5t44 -30h4.5h4.5h3q67 6 98 170q7 36 8.5 105t-5.5 149.5t-37 138.5t-79 58h-8zM291 887q0 -10 -7 -16.5t-17 -6.5q-8 0 -14 5l-37 28l-51 32q-5 3 -5 12q0 10 9 17.5t19 7.5q7 -3 9 -4l65 -42q29 -19 29 -33z" />
    <glyph glyph-name="Oacute" unicode="&#xd3;" horiz-adv-x="450" 
d="M83 192q-5 22 -10.5 52t-12.5 90t-9 115.5t4 118t23 108t52.5 75.5t86.5 30q53 0 94 -53t62 -132t25 -172.5t-10 -174.5t-50 -137t-89 -61q-2 0 -6 -0.5t-6 -0.5q-117 0 -154 142zM211 726q-43 -4 -68 -49.5t-31.5 -107.5t-4 -132t9.5 -121.5t14 -77.5q5 -22 15.5 -48.5
t31.5 -54.5t44 -30h4.5h4.5h3q67 6 98 170q7 36 8.5 105t-5.5 149.5t-37 138.5t-79 58h-8zM159 887q0 14 29 33l65 42l9 4q10 0 19 -7.5t9 -17.5q0 -9 -5 -12l-51 -32l-37 -28q-6 -5 -14 -5q-10 0 -17 6.5t-7 16.5z" />
    <glyph glyph-name="Ocircumflex" unicode="&#xd4;" horiz-adv-x="450" 
d="M83 192q-5 22 -10.5 52t-12.5 90t-9 115.5t4 118t23 108t52.5 75.5t86.5 30q53 0 94 -53t62 -132t25 -172.5t-10 -174.5t-50 -137t-89 -61q-2 0 -6 -0.5t-6 -0.5q-117 0 -154 142zM211 726q-43 -4 -68 -49.5t-31.5 -107.5t-4 -132t9.5 -121.5t14 -77.5q5 -22 15.5 -48.5
t31.5 -54.5t44 -30h4.5h4.5h3q67 6 98 170q7 36 8.5 105t-5.5 149.5t-37 138.5t-79 58h-8zM82 846q0 7 1 8q9 18 39.5 50.5t35.5 39.5q2 2 7.5 11.5t11 16t11.5 6.5q4 0 7.5 -1t7 -3.5t6 -4.5t6 -6.5t5 -6t5 -6.5t3.5 -6q27 -34 38 -52q1 -2 9.5 -11l15.5 -17t8 -10
q5 -5 5 -15q0 -14 -13 -14q-6 0 -16 5q-16 16 -41.5 49t-37.5 46q-6 -6 -26.5 -33t-39 -47.5t-26.5 -20.5q-9 0 -15.5 6t-6.5 16z" />
    <glyph glyph-name="Otilde" unicode="&#xd5;" horiz-adv-x="450" 
d="M83 192q-5 22 -10.5 52t-12.5 90t-9 115.5t4 118t23 108t52.5 75.5t86.5 30q53 0 94 -53t62 -132t25 -172.5t-10 -174.5t-50 -137t-89 -61q-2 0 -6 -0.5t-6 -0.5q-117 0 -154 142zM211 726q-43 -4 -68 -49.5t-31.5 -107.5t-4 -132t9.5 -121.5t14 -77.5q5 -22 15.5 -48.5
t31.5 -54.5t44 -30h4.5h4.5h3q67 6 98 170q7 36 8.5 105t-5.5 149.5t-37 138.5t-79 58h-8zM150 897q-16 0 -28 -25.5t-20 -25.5q-10 0 -20 5.5t-10 14.5q0 26 22 49.5t47 23.5q24 0 45 -15.5t34 -30.5t18 -15q17 0 24.5 7.5t7.5 16.5t3.5 16.5t12.5 7.5q27 0 27 -34
q0 -27 -16.5 -41.5t-45.5 -14.5q-20 0 -36.5 9.5t-25 21t-19 21t-20.5 9.5z" />
    <glyph glyph-name="Odieresis" unicode="&#xd6;" horiz-adv-x="450" 
d="M83 192q-5 22 -10.5 52t-12.5 90t-9 115.5t4 118t23 108t52.5 75.5t86.5 30q53 0 94 -53t62 -132t25 -172.5t-10 -174.5t-50 -137t-89 -61q-2 0 -6 -0.5t-6 -0.5q-117 0 -154 142zM211 726q-43 -4 -68 -49.5t-31.5 -107.5t-4 -132t9.5 -121.5t14 -77.5q5 -22 15.5 -48.5
t31.5 -54.5t44 -30h4.5h4.5h3q67 6 98 170q7 36 8.5 105t-5.5 149.5t-37 138.5t-79 58h-8zM75 876q0 9 12.5 19.5t21.5 10.5q20 0 32.5 -14t12.5 -35q0 -25 -40 -25q-39 0 -39 44zM207 886q0 9 10.5 19.5t18.5 10.5q17 0 27.5 -14t10.5 -36q0 -26 -34 -26q-33 0 -33 46z" />
    <glyph glyph-name="Oslash" unicode="&#xd8;" horiz-adv-x="450" 
d="M91 17q0 1 1 6v5l25 83q-21 30 -34 81q-5 22 -10.5 52t-12.5 90t-9 115.5t4 118t23 108t52.5 75.5t86.5 30q41 0 78 -35q3 15 11 45l2 14q2 14 4 16q9 1 13 1q33 0 33 -35q0 -36 -21 -99q51 -96 61.5 -244.5t-29.5 -267t-120 -125.5q-2 0 -6 -0.5t-6 -0.5q-46 0 -80 20
l-19 -59q-4 -17 -17 -17q-16 0 -23 5t-7 18zM211 726q-43 -4 -68 -49.5t-31.5 -107.5t-4 -132t9.5 -121.5t14 -77.5q3 -17 12 -40q81 271 138 495q-25 33 -62 33h-8zM332 275q6 31 8.5 87.5t-3 132.5t-22.5 129l-3 -12l-135 -477q23 -29 45 -30h4.5h4.5h3q67 6 98 170z" />
    <glyph glyph-name="Ugrave" unicode="&#xd9;" horiz-adv-x="445" 
d="M53 464q7 256 14 324q12 12 25 12q17 0 25 -12t8.5 -22.5t-0.5 -29.5v-6q-1 -50 -8 -149t-8 -149q0 -8 -2 -39.5t-3 -58.5t-1 -64.5t4.5 -67t12.5 -56t24 -41.5t38 -15q32 0 56 44.5t33 82.5q60 284 60 535v22q0 20 33 20q12 0 21.5 -9t9.5 -21l-1 -15q-18 -271 -49 -449
l-2 -13q0 -1 -1 -4.5t-2 -5.5q-4 -25 -8 -43t-12 -49.5t-19 -53.5t-26.5 -44.5t-37.5 -34.5t-49 -12q-36 0 -62.5 15.5t-40.5 37.5t-22 54.5t-10 58t-2 57.5v18q0 87 2 183zM288 887q0 -10 -7 -16.5t-17 -6.5q-8 0 -14 5l-37 28l-51 32q-5 3 -5 12q0 10 9 17.5t19 7.5
q7 -3 9 -4l65 -42q29 -19 29 -33z" />
    <glyph glyph-name="Uacute" unicode="&#xda;" horiz-adv-x="445" 
d="M53 464q7 256 14 324q12 12 25 12q17 0 25 -12t8.5 -22.5t-0.5 -29.5v-6q-1 -50 -8 -149t-8 -149q0 -8 -2 -39.5t-3 -58.5t-1 -64.5t4.5 -67t12.5 -56t24 -41.5t38 -15q32 0 56 44.5t33 82.5q60 284 60 535v22q0 20 33 20q12 0 21.5 -9t9.5 -21l-1 -15q-18 -271 -49 -449
l-2 -13q0 -1 -1 -4.5t-2 -5.5q-4 -25 -8 -43t-12 -49.5t-19 -53.5t-26.5 -44.5t-37.5 -34.5t-49 -12q-36 0 -62.5 15.5t-40.5 37.5t-22 54.5t-10 58t-2 57.5v18q0 87 2 183zM156 887q0 14 29 33l65 42l9 4q10 0 19 -7.5t9 -17.5q0 -9 -5 -12l-51 -32l-37 -28q-6 -5 -14 -5
q-10 0 -17 6.5t-7 16.5z" />
    <glyph glyph-name="Ucircumflex" unicode="&#xdb;" horiz-adv-x="445" 
d="M53 464q7 256 14 324q12 12 25 12q17 0 25 -12t8.5 -22.5t-0.5 -29.5v-6q-1 -50 -8 -149t-8 -149q0 -8 -2 -39.5t-3 -58.5t-1 -64.5t4.5 -67t12.5 -56t24 -41.5t38 -15q32 0 56 44.5t33 82.5q60 284 60 535v22q0 20 33 20q12 0 21.5 -9t9.5 -21l-1 -15q-18 -271 -49 -449
l-2 -13q0 -1 -1 -4.5t-2 -5.5q-4 -25 -8 -43t-12 -49.5t-19 -53.5t-26.5 -44.5t-37.5 -34.5t-49 -12q-36 0 -62.5 15.5t-40.5 37.5t-22 54.5t-10 58t-2 57.5v18q0 87 2 183zM111 880q0 7 1 8q9 18 39.5 50.5t35.5 39.5q2 2 7.5 11.5t11 16t11.5 6.5q4 0 7.5 -1t7 -3.5
t6 -4.5t6 -6.5t5 -6t5 -6.5t3.5 -6q27 -34 38 -52q1 -2 9.5 -11l15.5 -17t8 -10q5 -5 5 -15q0 -14 -13 -14q-6 0 -16 5q-16 16 -41.5 49t-37.5 46q-6 -6 -26.5 -33t-39 -47.5t-26.5 -20.5q-9 0 -15.5 6t-6.5 16z" />
    <glyph glyph-name="Udieresis" unicode="&#xdc;" horiz-adv-x="445" 
d="M53 464q7 256 14 324q12 12 25 12q17 0 25 -12t8.5 -22.5t-0.5 -29.5v-6q-1 -50 -8 -149t-8 -149q0 -8 -2 -39.5t-3 -58.5t-1 -64.5t4.5 -67t12.5 -56t24 -41.5t38 -15q32 0 56 44.5t33 82.5q60 284 60 535v22q0 20 33 20q12 0 21.5 -9t9.5 -21l-1 -15q-18 -271 -49 -449
l-2 -13q0 -1 -1 -4.5t-2 -5.5q-4 -25 -8 -43t-12 -49.5t-19 -53.5t-26.5 -44.5t-37.5 -34.5t-49 -12q-36 0 -62.5 15.5t-40.5 37.5t-22 54.5t-10 58t-2 57.5v18q0 87 2 183zM123 900q0 9 12.5 19.5t21.5 10.5q20 0 32.5 -14t12.5 -35q0 -25 -40 -25q-39 0 -39 44zM255 910
q0 9 10.5 19.5t18.5 10.5q17 0 27.5 -14t10.5 -36q0 -26 -34 -26q-33 0 -33 46z" />
    <glyph glyph-name="Yacute" unicode="&#xdd;" horiz-adv-x="392" 
d="M221 25q-5 42 -11 132.5t-13.5 164t-20.5 122.5q-99 198 -119 243q-18 39 7 50q17 9 29 -6q3 -3 4 -7l114 -240l67 265q2 13 18 18t31 -2.5t15 -22.5v-4l-99 -304l35 -406q0 -22 -27 -22q-26 0 -30 19zM104 835q0 14 29 33l65 42l9 4q10 0 19 -7.5t9 -17.5q0 -9 -5 -12
l-51 -32l-37 -28q-6 -5 -14 -5q-10 0 -17 6.5t-7 16.5z" />
    <glyph glyph-name="Thorn" unicode="&#xde;" horiz-adv-x="339" 
d="M92 -10l-42 715v74q10 12 22 12q8 0 16.5 -8t10.5 -16q5 -40 5 -59v-113q1 -15 7 -22.5t12.5 -8.5t21 -2t24.5 -3q44 -9 72 -42t38 -72t10 -85q0 -116 -96 -180q-9 -6 -29.5 -12t-29.5 -12v-38q0 -16 3 -46.5t3 -46.5q0 -47 -30 -47q-18 7 -18 12zM116 467
q0 -168 12 -252q1 0 6 -1h5q27 0 47 16.5t30 42.5t14.5 51t4.5 49q0 52 -23 95.5t-70 43.5q-15 0 -26 -6v-39z" />
    <glyph glyph-name="germandbls" unicode="&#xdf;" horiz-adv-x="480" 
d="M50 20v89q6 216 6 361v36q5 92 12 166q19 155 139 155q40 0 69.5 -27.5t29.5 -67.5q0 -32 -30 -91.5t-30 -93.5q0 -28 29 -65q7 -7 31.5 -34t32.5 -37l27 -34t27 -39t18.5 -38t14.5 -45.5t4 -46.5q0 -63 -38.5 -105t-101.5 -42q-24 0 -52 11.5t-28 33.5q0 12 12 20.5
t24 6.5q9 -2 22 -13t26 -11q42 0 62 32t20 77q0 36 -18 75t-34.5 60.5t-55 64.5l-46.5 52q-30 36 -30 84q0 35 27.5 93.5t27.5 89.5q0 20 -10 34t-30 14h-3q-32 -14 -52.5 -39t-28.5 -60t-10.5 -64t-3.5 -70v-16q-5 -160 -5 -326v-66q0 -19 2.5 -55t2.5 -54q0 -14 -11 -20.5
t-25 -6.5q-18 0 -23 12z" />
    <glyph glyph-name="agrave" unicode="&#xe0;" horiz-adv-x="399" 
d="M273 218h-148l-6 -6l-17 -113q0 -1 -1 -11.5t-2 -16t-4 -14t-9 -12.5t-14 -4q-9 0 -15.5 13.5t-6.5 22.5l105 727q12 47 37 47q22 0 31 -15l8 -21q27 -107 49.5 -238.5t33.5 -218.5t29 -243l6 -65l-1 -1v-1q-6 -16 -11.5 -21.5t-18.5 -5.5h-3q-16 0 -17 7zM198 744
l-58 -464l125 -3zM259 899q0 -10 -7 -16.5t-17 -6.5q-8 0 -14 5l-37 28l-51 32q-5 3 -5 12q0 10 9 17.5t19 7.5q7 -3 9 -4l65 -42q29 -19 29 -33z" />
    <glyph glyph-name="aacute" unicode="&#xe1;" horiz-adv-x="399" 
d="M273 218h-148l-6 -6l-17 -113q0 -1 -1 -11.5t-2 -16t-4 -14t-9 -12.5t-14 -4q-9 0 -15.5 13.5t-6.5 22.5l105 727q12 47 37 47q22 0 31 -15l8 -21q27 -107 49.5 -238.5t33.5 -218.5t29 -243l6 -65l-1 -1v-1q-6 -16 -11.5 -21.5t-18.5 -5.5h-3q-16 0 -17 7zM198 744
l-58 -464l125 -3zM113 929q0 14 29 33l65 42l9 4q10 0 19 -7.5t9 -17.5q0 -9 -5 -12l-51 -32l-37 -28q-6 -5 -14 -5q-10 0 -17 6.5t-7 16.5z" />
    <glyph glyph-name="acircumflex" unicode="&#xe2;" horiz-adv-x="399" 
d="M273 218h-148l-6 -6l-17 -113q0 -1 -1 -11.5t-2 -16t-4 -14t-9 -12.5t-14 -4q-9 0 -15.5 13.5t-6.5 22.5l105 727q12 47 37 47q22 0 31 -15l8 -21q27 -107 49.5 -238.5t33.5 -218.5t29 -243l6 -65l-1 -1v-1q-6 -16 -11.5 -21.5t-18.5 -5.5h-3q-16 0 -17 7zM198 744
l-58 -464l125 -3zM84 888q0 6 1 7q8 17 36 49t32 38q2 2 5 8t6 11t7.5 9t8.5 4q6 0 12 -4t8.5 -7t8.5 -11.5t7 -9.5l34 -50q1 -2 15 -18.5t15 -18.5q4 -5 4 -14q0 -14 -12 -14q-6 0 -14 5q-14 16 -37.5 48t-33.5 44q-5 -6 -24 -32.5t-35 -46t-24 -19.5t-14 6t-6 16z" />
    <glyph glyph-name="atilde" unicode="&#xe3;" horiz-adv-x="399" 
d="M273 218h-148l-6 -6l-17 -113q0 -1 -1 -11.5t-2 -16t-4 -14t-9 -12.5t-14 -4q-9 0 -15.5 13.5t-6.5 22.5l105 727q12 47 37 47q22 0 31 -15l8 -21q27 -107 49.5 -238.5t33.5 -218.5t29 -243l6 -65l-1 -1v-1q-6 -16 -11.5 -21.5t-18.5 -5.5h-3q-16 0 -17 7zM198 744
l-58 -464l125 -3zM139 955q-16 0 -28 -25.5t-20 -25.5q-10 0 -20 5.5t-10 14.5q0 26 22 49.5t47 23.5q24 0 45 -15.5t34 -30.5t18 -15q17 0 24.5 7.5t7.5 16.5t3.5 16.5t12.5 7.5q27 0 27 -34q0 -27 -16.5 -41.5t-45.5 -14.5q-20 0 -36.5 9.5t-25 21t-19 21t-20.5 9.5z" />
    <glyph glyph-name="adieresis" unicode="&#xe4;" horiz-adv-x="399" 
d="M273 218h-148l-6 -6l-17 -113q0 -1 -1 -11.5t-2 -16t-4 -14t-9 -12.5t-14 -4q-9 0 -15.5 13.5t-6.5 22.5l105 727q12 47 37 47q22 0 31 -15l8 -21q27 -107 49.5 -238.5t33.5 -218.5t29 -243l6 -65l-1 -1v-1q-6 -16 -11.5 -21.5t-18.5 -5.5h-3q-16 0 -17 7zM198 744
l-58 -464l125 -3zM100 902q0 9 12.5 19.5t21.5 10.5q20 0 32.5 -14t12.5 -35q0 -25 -40 -25q-39 0 -39 44zM232 912q0 9 10.5 19.5t18.5 10.5q17 0 27.5 -14t10.5 -36q0 -26 -34 -26q-33 0 -33 46z" />
    <glyph glyph-name="aring" unicode="&#xe5;" horiz-adv-x="399" 
d="M113 891q0 48 24.5 75.5t71.5 27.5q33 0 54.5 -21.5t21.5 -55.5q0 -79 -56 -96l2 -6q27 -107 49.5 -238.5t33.5 -218.5t29 -243l6 -65l-1 -1v-1q-6 -16 -11.5 -21.5t-18.5 -5.5h-3q-16 0 -17 7l-25 190h-148l-6 -6l-17 -113q0 -1 -1 -11.5t-2 -16t-4 -14t-9 -12.5t-14 -4
q-9 0 -15.5 13.5t-6.5 22.5l105 727q2 10 6 20q-48 17 -48 67zM198 744l-58 -464l125 -3zM151 891q0 -16 10.5 -24.5t27.5 -8.5q26 0 40.5 15.5t14.5 41.5q0 41 -30 41q-27 0 -45 -19t-18 -46z" />
    <glyph glyph-name="ae" unicode="&#xe6;" horiz-adv-x="575" 
d="M273 218h-148l-6 -6l-17 -113q0 -1 -1 -11.5t-2 -16t-4 -14t-9 -12.5t-14 -4q-9 0 -15.5 13.5t-6.5 22.5l105 727q12 47 37 47h2.5t4.5 -0.5t7 -0.5t12.5 -0.5t19.5 -1.5t28.5 -2t38 -2l49.5 -2.5t63 -3.5q4 0 15 -8t12 -12q1 -2 1 -5q0 -13 -13.5 -21t-27.5 -8h-2
l-165 8q49 -202 87 -513l149 15q27 0 29 -21q3 -22 -25 -33q-7 -3 -17 -4l-130 -18q2 -16 6.5 -49.5t6.5 -53.5l5 -54l5 -1q9 -1 52 -1q16 0 37 2t33.5 3t24.5 0t17.5 -8t6.5 -20q1 -15 -49 -21.5t-104 -4t-67 10.5q-6 2 -6 7zM198 744l-58 -464l125 -3z" />
    <glyph glyph-name="ccedilla" unicode="&#xe7;" horiz-adv-x="380" 
d="M137 -59q0 22 14 22t26.5 -12t27.5 -12q44 0 44 31q0 15 -9.5 20.5t-23.5 6.5t-27.5 5t-23 21t-9.5 49v25q-53 44 -81 126t-26 166t18 165q10 43 26 82.5t41.5 77.5t64 60.5t84.5 22.5q17 0 32 -10.5t15 -26.5q0 -8 -4.5 -14t-10.5 -9t-16 -4t-16 -1.5t-15 0t-10 0.5h-6
q-34 0 -62.5 -32.5t-44.5 -82.5t-24.5 -102t-8.5 -97q0 -111 17.5 -176.5t78.5 -115.5q23 -19 72.5 -16.5t51.5 -9.5q14 -24 -3 -35.5t-46 -11.5q-44 0 -83 18v-25q56 -5 79 -53q21 -43 -4 -74q-24 -30 -80 -21q-10 0 -34 16.5t-24 26.5z" />
    <glyph glyph-name="egrave" unicode="&#xe8;" horiz-adv-x="334" 
d="M61 32l-11 698q0 14 11 24.5t24 10.5h158q4 0 15 -8t12 -12q1 -2 1 -5q0 -14 -14 -21.5t-29 -7.5h-120l5 -332l108 16h5q28 0 28 -18q0 -19 -24 -30q-7 -3 -15 -4l-100 -15l-3 -261q9 -1 52 -1q16 0 37 2t33.5 3t24.5 0t17.5 -8t6.5 -20q1 -16 -54.5 -22t-111.5 -2
t-56 13zM203 889q0 -10 -7 -16.5t-17 -6.5q-8 0 -14 5l-37 28l-51 32q-5 3 -5 12q0 10 9 17.5t19 7.5q7 -3 9 -4l65 -42q29 -19 29 -33z" />
    <glyph glyph-name="eacute" unicode="&#xe9;" horiz-adv-x="334" 
d="M61 32l-11 698q0 14 11 24.5t24 10.5h158q4 0 15 -8t12 -12q1 -2 1 -5q0 -14 -14 -21.5t-29 -7.5h-120l5 -332l108 16h5q28 0 28 -18q0 -19 -24 -30q-7 -3 -15 -4l-100 -15l-3 -261q9 -1 52 -1q16 0 37 2t33.5 3t24.5 0t17.5 -8t6.5 -20q1 -16 -54.5 -22t-111.5 -2
t-56 13zM101 889q0 14 29 33l65 42l9 4q10 0 19 -7.5t9 -17.5q0 -9 -5 -12l-51 -32l-37 -28q-6 -5 -14 -5q-10 0 -17 6.5t-7 16.5z" />
    <glyph glyph-name="ecircumflex" unicode="&#xea;" horiz-adv-x="334" 
d="M61 32l-11 698q0 14 11 24.5t24 10.5h158q4 0 15 -8t12 -12q1 -2 1 -5q0 -14 -14 -21.5t-29 -7.5h-120l5 -332l108 16h5q28 0 28 -18q0 -19 -24 -30q-7 -3 -15 -4l-100 -15l-3 -261q9 -1 52 -1q16 0 37 2t33.5 3t24.5 0t17.5 -8t6.5 -20q1 -16 -54.5 -22t-111.5 -2
t-56 13zM32 852q0 7 1 8q9 18 39.5 50.5t35.5 39.5q2 2 7.5 11.5t11 16t11.5 6.5q4 0 7.5 -1t7 -3.5t6 -4.5t6 -6.5t5 -6t5 -6.5t3.5 -6q27 -34 38 -52q1 -2 9.5 -11l15.5 -17t8 -10q5 -5 5 -15q0 -14 -13 -14q-6 0 -16 5q-16 16 -41.5 49t-37.5 46q-6 -6 -26.5 -33
t-39 -47.5t-26.5 -20.5q-9 0 -15.5 6t-6.5 16z" />
    <glyph glyph-name="edieresis" unicode="&#xeb;" horiz-adv-x="334" 
d="M61 32l-11 698q0 14 11 24.5t24 10.5h158q4 0 15 -8t12 -12q1 -2 1 -5q0 -14 -14 -21.5t-29 -7.5h-120l5 -332l108 16h5q28 0 28 -18q0 -19 -24 -30q-7 -3 -15 -4l-100 -15l-3 -261q9 -1 52 -1q16 0 37 2t33.5 3t24.5 0t17.5 -8t6.5 -20q1 -16 -54.5 -22t-111.5 -2
t-56 13zM67 902q0 9 12.5 19.5t21.5 10.5q20 0 32.5 -14t12.5 -35q0 -25 -40 -25q-39 0 -39 44zM199 912q0 9 10.5 19.5t18.5 10.5q17 0 27.5 -14t10.5 -36q0 -26 -34 -26q-33 0 -33 46z" />
    <glyph glyph-name="igrave" unicode="&#xec;" horiz-adv-x="189" 
d="M50 19l27 742q5 14 10.5 17.5t22.5 3.5q20 0 24.5 -8.5t4.5 -33.5q0 -2 -0.5 -9.5t-0.5 -8.5l-30 -684q-1 -30 -28 -37q-23 -5 -29 11q-1 3 -1 7zM161 889q0 -10 -7 -16.5t-17 -6.5q-8 0 -14 5l-37 28l-51 32q-5 3 -5 12q0 10 9 17.5t19 7.5q7 -3 9 -4l65 -42
q29 -19 29 -33z" />
    <glyph glyph-name="iacute" unicode="&#xed;" horiz-adv-x="189" 
d="M50 19l27 742q5 14 10.5 17.5t22.5 3.5q20 0 24.5 -8.5t4.5 -33.5q0 -2 -0.5 -9.5t-0.5 -8.5l-30 -684q-1 -30 -28 -37q-23 -5 -29 11q-1 3 -1 7zM29 889q0 14 29 33l65 42l9 4q10 0 19 -7.5t9 -17.5q0 -9 -5 -12l-51 -32l-37 -28q-6 -5 -14 -5q-10 0 -17 6.5t-7 16.5z
" />
    <glyph glyph-name="icircumflex" unicode="&#xee;" horiz-adv-x="189" 
d="M50 19l27 742q5 14 10.5 17.5t22.5 3.5q20 0 24.5 -8.5t4.5 -33.5q0 -2 -0.5 -9.5t-0.5 -8.5l-30 -684q-1 -30 -28 -37q-23 -5 -29 11q-1 3 -1 7zM-16 882q0 7 1 8q9 18 39.5 50.5t35.5 39.5q2 2 7.5 11.5t11 16t11.5 6.5q4 0 7.5 -1t7 -3.5t6 -4.5t6 -6.5t5 -6t5 -6.5
t3.5 -6q27 -34 38 -52q1 -2 9.5 -11l15.5 -17t8 -10q5 -5 5 -15q0 -14 -13 -14q-6 0 -16 5q-16 16 -41.5 49t-37.5 46q-6 -6 -26.5 -33t-39 -47.5t-26.5 -20.5q-9 0 -15.5 6t-6.5 16z" />
    <glyph glyph-name="idieresis" unicode="&#xef;" horiz-adv-x="189" 
d="M50 19l27 742q5 14 10.5 17.5t22.5 3.5q20 0 24.5 -8.5t4.5 -33.5q0 -2 -0.5 -9.5t-0.5 -8.5l-30 -684q-1 -30 -28 -37q-23 -5 -29 11q-1 3 -1 7zM-5 902q0 9 12.5 19.5t21.5 10.5q20 0 32.5 -14t12.5 -35q0 -25 -40 -25q-39 0 -39 44zM127 912q0 9 10.5 19.5t18.5 10.5
q17 0 27.5 -14t10.5 -36q0 -26 -34 -26q-33 0 -33 46z" />
    <glyph glyph-name="eth" unicode="&#xf0;" horiz-adv-x="469" 
d="M76 377q-17 2 -23 14t1 23.5t24 12.5h70q0 82 -0.5 207.5t-0.5 139.5v4q0 42 29 54h9q72 0 112 -36q134 -120 121 -404q-15 -372 -218 -397q-27 -3 -40 4.5t-13 33.5v170q0 8 0.5 70t0.5 104h-72zM211 768q-4 -108 -7 -339h52q22 -7 21 -26.5t-23 -23.5h-50v-326
q44 7 76.5 43t49.5 87.5t24.5 101t7.5 95.5q0 29 -1 57t-5 77.5t-14 90t-25 79.5t-40.5 61.5t-58.5 22.5h-7z" />
    <glyph glyph-name="ntilde" unicode="&#xf1;" horiz-adv-x="469" 
d="M50 32l12 704q-1 20 13 32.5t32.5 6.5t28.5 -33l204 -553q5 227 15 388q1 17 1.5 56t2.5 67.5t8 53.5q0 11 26 11q18 -1 22 -4.5t3 -19.5q-2 -54 -11 -158t-11 -154q-12 -348 -12 -393q-6 -15 -22.5 -10.5t-23.5 18.5q-12 26 -230 608l-7 -614q0 -14 -12.5 -19.5
t-25.5 -1t-13 14.5zM194 877q-16 0 -28 -25.5t-20 -25.5q-10 0 -20 5.5t-10 14.5q0 26 22 49.5t47 23.5q24 0 45 -15.5t34 -30.5t18 -15q17 0 24.5 7.5t7.5 16.5t3.5 16.5t12.5 7.5q27 0 27 -34q0 -27 -16.5 -41.5t-45.5 -14.5q-20 0 -36.5 9.5t-25 21t-19 21t-20.5 9.5z
" />
    <glyph glyph-name="ograve" unicode="&#xf2;" horiz-adv-x="437" 
d="M50 448q0 34 1 60.5t5 66t11.5 69t21.5 62t33 53.5t48 35t66 14q43 -5 73.5 -39.5t45.5 -91.5t23.5 -114.5t8 -130t-2 -114.5t-5.5 -89q-3 -31 -12 -62.5t-25 -64t-44 -53t-63 -20.5q-185 0 -185 419zM108 540q-1 -32 -1 -88q0 -206 33 -289.5t92 -83.5q99 0 99 317v4
q0 37 -5 89.5t-17 116.5t-36.5 107.5t-57.5 43.5q-26 0 -48 -26.5t-34 -64t-18.5 -71.5t-6.5 -55zM284 889q0 -10 -7 -16.5t-17 -6.5q-8 0 -14 5l-37 28l-51 32q-5 3 -5 12q0 10 9 17.5t19 7.5q7 -3 9 -4l65 -42q29 -19 29 -33z" />
    <glyph glyph-name="oacute" unicode="&#xf3;" horiz-adv-x="437" 
d="M50 448q0 34 1 60.5t5 66t11.5 69t21.5 62t33 53.5t48 35t66 14q43 -5 73.5 -39.5t45.5 -91.5t23.5 -114.5t8 -130t-2 -114.5t-5.5 -89q-3 -31 -12 -62.5t-25 -64t-44 -53t-63 -20.5q-185 0 -185 419zM108 540q-1 -32 -1 -88q0 -206 33 -289.5t92 -83.5q99 0 99 317v4
q0 37 -5 89.5t-17 116.5t-36.5 107.5t-57.5 43.5q-26 0 -48 -26.5t-34 -64t-18.5 -71.5t-6.5 -55zM152 889q0 14 29 33l65 42l9 4q10 0 19 -7.5t9 -17.5q0 -9 -5 -12l-51 -32l-37 -28q-6 -5 -14 -5q-10 0 -17 6.5t-7 16.5z" />
    <glyph glyph-name="ocircumflex" unicode="&#xf4;" horiz-adv-x="437" 
d="M50 448q0 34 1 60.5t5 66t11.5 69t21.5 62t33 53.5t48 35t66 14q43 -5 73.5 -39.5t45.5 -91.5t23.5 -114.5t8 -130t-2 -114.5t-5.5 -89q-3 -31 -12 -62.5t-25 -64t-44 -53t-63 -20.5q-185 0 -185 419zM108 540q-1 -32 -1 -88q0 -206 33 -289.5t92 -83.5q99 0 99 317v4
q0 37 -5 89.5t-17 116.5t-36.5 107.5t-57.5 43.5q-26 0 -48 -26.5t-34 -64t-18.5 -71.5t-6.5 -55zM91 864q0 7 1 8q9 18 39.5 50.5t35.5 39.5q2 2 7.5 11.5t11 16t11.5 6.5q4 0 7.5 -1t7 -3.5t6 -4.5t6 -6.5t5 -6t5 -6.5t3.5 -6q27 -34 38 -52q1 -2 9.5 -11l15.5 -17t8 -10
q5 -5 5 -15q0 -14 -13 -14q-6 0 -16 5q-16 16 -41.5 49t-37.5 46q-6 -6 -26.5 -33t-39 -47.5t-26.5 -20.5q-9 0 -15.5 6t-6.5 16z" />
    <glyph glyph-name="otilde" unicode="&#xf5;" horiz-adv-x="437" 
d="M50 448q0 34 1 60.5t5 66t11.5 69t21.5 62t33 53.5t48 35t66 14q43 -5 73.5 -39.5t45.5 -91.5t23.5 -114.5t8 -130t-2 -114.5t-5.5 -89q-3 -31 -12 -62.5t-25 -64t-44 -53t-63 -20.5q-185 0 -185 419zM108 540q-1 -32 -1 -88q0 -206 33 -289.5t92 -83.5q99 0 99 317v4
q0 37 -5 89.5t-17 116.5t-36.5 107.5t-57.5 43.5q-26 0 -48 -26.5t-34 -64t-18.5 -71.5t-6.5 -55zM176 921q-16 0 -28 -25.5t-20 -25.5q-10 0 -20 5.5t-10 14.5q0 26 22 49.5t47 23.5q24 0 45 -15.5t34 -30.5t18 -15q17 0 24.5 7.5t7.5 16.5t3.5 16.5t12.5 7.5q27 0 27 -34
q0 -27 -16.5 -41.5t-45.5 -14.5q-20 0 -36.5 9.5t-25 21t-19 21t-20.5 9.5z" />
    <glyph glyph-name="odieresis" unicode="&#xf6;" horiz-adv-x="437" 
d="M50 448q0 34 1 60.5t5 66t11.5 69t21.5 62t33 53.5t48 35t66 14q43 -5 73.5 -39.5t45.5 -91.5t23.5 -114.5t8 -130t-2 -114.5t-5.5 -89q-3 -31 -12 -62.5t-25 -64t-44 -53t-63 -20.5q-185 0 -185 419zM108 540q-1 -32 -1 -88q0 -206 33 -289.5t92 -83.5q99 0 99 317v4
q0 37 -5 89.5t-17 116.5t-36.5 107.5t-57.5 43.5q-26 0 -48 -26.5t-34 -64t-18.5 -71.5t-6.5 -55zM119 902q0 9 12.5 19.5t21.5 10.5q20 0 32.5 -14t12.5 -35q0 -25 -40 -25q-39 0 -39 44zM251 912q0 9 10.5 19.5t18.5 10.5q17 0 27.5 -14t10.5 -36q0 -26 -34 -26
q-33 0 -33 46z" />
    <glyph glyph-name="oslash" unicode="&#xf8;" horiz-adv-x="437" 
d="M85 17q0 1 1 6v5l24 80q-60 103 -60 340q0 34 1 60.5t5 66t11.5 69t21.5 62t33 53.5t48 35t66 14q34 -4 61 -28l3 11l2 14q2 14 4 16q9 1 13 1q33 0 33 -35q0 -31 -12 -70q64 -142 39 -488q-3 -31 -12 -62.5t-25 -64t-44 -53t-63 -20.5q-50 0 -87 32l-16 -50
q-4 -17 -17 -17q-16 0 -23 5t-7 18zM108 540q-1 -32 -1 -88q0 -179 26 -268q93 314 145 518q-27 55 -63 55q-26 0 -48 -26.5t-34 -64t-18.5 -71.5t-6.5 -55zM331 400q0 107 -24 215q-1 -1 -1 -3l-62.5 -223.5t-78.5 -274.5q27 -35 67 -35q99 0 99 317v4z" />
    <glyph glyph-name="ugrave" unicode="&#xf9;" horiz-adv-x="376" 
d="M326 247q-1 -31 -1.5 -45t-4 -41t-10 -40.5t-18 -29.5t-30 -23t-43.5 -7q-6 0 -24 2q-85 10 -116 225q-17 120 -26 444l-2 49v5q0 16 27.5 16t32.5 -15q4 -8 5.5 -118t4.5 -233.5t28 -226t72 -102.5q23 0 34.5 27.5t12.5 56.5q6 228 -4 596q4 12 9.5 15t19.5 3
q30 0 31 -20q2 -88 1 -266t1 -272zM254 889q0 -10 -7 -16.5t-17 -6.5q-8 0 -14 5l-37 28l-51 32q-5 3 -5 12q0 10 9 17.5t19 7.5q7 -3 9 -4l65 -42q29 -19 29 -33z" />
    <glyph glyph-name="uacute" unicode="&#xfa;" horiz-adv-x="376" 
d="M326 247q-1 -31 -1.5 -45t-4 -41t-10 -40.5t-18 -29.5t-30 -23t-43.5 -7q-6 0 -24 2q-85 10 -116 225q-17 120 -26 444l-2 49v5q0 16 27.5 16t32.5 -15q4 -8 5.5 -118t4.5 -233.5t28 -226t72 -102.5q23 0 34.5 27.5t12.5 56.5q6 228 -4 596q4 12 9.5 15t19.5 3
q30 0 31 -20q2 -88 1 -266t1 -272zM122 889q0 14 29 33l65 42l9 4q10 0 19 -7.5t9 -17.5q0 -9 -5 -12l-51 -32l-37 -28q-6 -5 -14 -5q-10 0 -17 6.5t-7 16.5z" />
    <glyph glyph-name="ucircumflex" unicode="&#xfb;" horiz-adv-x="376" 
d="M326 247q-1 -31 -1.5 -45t-4 -41t-10 -40.5t-18 -29.5t-30 -23t-43.5 -7q-6 0 -24 2q-85 10 -116 225q-17 120 -26 444l-2 49v5q0 16 27.5 16t32.5 -15q4 -8 5.5 -118t4.5 -233.5t28 -226t72 -102.5q23 0 34.5 27.5t12.5 56.5q6 228 -4 596q4 12 9.5 15t19.5 3
q30 0 31 -20q2 -88 1 -266t1 -272zM77 882q0 7 1 8q9 18 39.5 50.5t35.5 39.5q2 2 7.5 11.5t11 16t11.5 6.5q4 0 7.5 -1t7 -3.5t6 -4.5t6 -6.5t5 -6t5 -6.5t3.5 -6q27 -34 38 -52q1 -2 9.5 -11l15.5 -17t8 -10q5 -5 5 -15q0 -14 -13 -14q-6 0 -16 5q-16 16 -41.5 49
t-37.5 46q-6 -6 -26.5 -33t-39 -47.5t-26.5 -20.5q-9 0 -15.5 6t-6.5 16z" />
    <glyph glyph-name="udieresis" unicode="&#xfc;" horiz-adv-x="376" 
d="M326 247q-1 -31 -1.5 -45t-4 -41t-10 -40.5t-18 -29.5t-30 -23t-43.5 -7q-6 0 -24 2q-85 10 -116 225q-17 120 -26 444l-2 49v5q0 16 27.5 16t32.5 -15q4 -8 5.5 -118t4.5 -233.5t28 -226t72 -102.5q23 0 34.5 27.5t12.5 56.5q6 228 -4 596q4 12 9.5 15t19.5 3
q30 0 31 -20q2 -88 1 -266t1 -272zM88 902q0 9 12.5 19.5t21.5 10.5q20 0 32.5 -14t12.5 -35q0 -25 -40 -25q-39 0 -39 44zM220 912q0 9 10.5 19.5t18.5 10.5q17 0 27.5 -14t10.5 -36q0 -26 -34 -26q-33 0 -33 46z" />
    <glyph glyph-name="yacute" unicode="&#xfd;" horiz-adv-x="435" 
d="M161 -5q0 2 0.5 6.5t0.5 8.5q1 20 5 114.5l7 168t3 91.5l-85 231q-19 42 -35 91q-7 15 -7 24q2 17 24 17q32 0 42 -21q8 -24 38.5 -125.5t52.5 -150.5q5 4 31 61.5l49.5 114t22.5 56.5q2 5 5.5 18.5t6.5 20t11.5 13t20.5 6.5q30 -2 30 -19v-7q-17 -46 -73 -158.5
t-73 -175.5l-18 -381q-1 -20 -34 -18h-2q-20 2 -23 14zM129 825q0 14 29 33l65 42l9 4q10 0 19 -7.5t9 -17.5q0 -9 -5 -12l-51 -32l-37 -28q-6 -5 -14 -5q-10 0 -17 6.5t-7 16.5z" />
    <glyph glyph-name="thorn" unicode="&#xfe;" horiz-adv-x="338" 
d="M86 -16q-8 113 -16 347.5t-19 370.5q-1 2 -1 32q0 28 1 33q1 6 20 6q6 0 11 -1.5t8 -3.5t5.5 -6.5t3.5 -7.5t2 -9.5t1.5 -9.5t1 -11t0.5 -10q1 -8 2 -34.5t2.5 -55.5t1.5 -35q72 -8 125 -67.5t53 -133.5q0 -214 -160 -273v-21q0 -15 3 -44.5t3 -43.5q0 -11 -6.5 -19.5
t-17.5 -8.5q-10 0 -24 6zM114 531q0 -192 7 -357h4q6 0 26 12q84 47 84 169q0 41 -11 79t-39.5 67.5t-70.5 29.5z" />
    <glyph glyph-name="ydieresis" unicode="&#xff;" horiz-adv-x="435" 
d="M161 -5q0 2 0.5 6.5t0.5 8.5q1 20 5 114.5l7 168t3 91.5l-85 231q-19 42 -35 91q-7 15 -7 24q2 17 24 17q32 0 42 -21q8 -24 38.5 -125.5t52.5 -150.5q5 4 31 61.5l49.5 114t22.5 56.5q2 5 5.5 18.5t6.5 20t11.5 13t20.5 6.5q30 -2 30 -19v-7q-17 -46 -73 -158.5
t-73 -175.5l-18 -381q-1 -20 -34 -18h-2q-20 2 -23 14zM122 848q0 9 12.5 19.5t21.5 10.5q20 0 32.5 -14t12.5 -35q0 -25 -40 -25q-39 0 -39 44zM254 858q0 9 10.5 19.5t18.5 10.5q17 0 27.5 -14t10.5 -36q0 -26 -34 -26q-33 0 -33 46z" />
    <glyph glyph-name="dotlessi" unicode="&#x131;" horiz-adv-x="189" 
d="M50 19l27 742q5 14 10.5 17.5t22.5 3.5q20 0 24.5 -8.5t4.5 -33.5q0 -2 -0.5 -9.5t-0.5 -8.5l-30 -684q-1 -30 -28 -37q-23 -5 -29 11q-1 3 -1 7z" />
    <glyph glyph-name="OE" unicode="&#x152;" horiz-adv-x="511" 
d="M217 781q22 0 46 -12q68 6 103 3.5t44.5 -8t9.5 -17.5q0 -20 -12 -25h-109q-7 0 -7 -8q0 -47 2.5 -93.5t7 -104.5t6.5 -95q4 -1 116 -1q23 -1 34 -25t-10 -32q-5 -2 -13 -2h-127l2 -234q7 -2 47.5 1t72 -2t31.5 -24q0 -23 -19 -26h-5q-92 -8 -134 -4q-26 -20 -54 -21
q-2 0 -6 -0.5t-6 -0.5q-117 0 -154 142q-5 22 -10.5 52t-12.5 90t-9 115.5t4 118t23 108t52.5 75.5t86.5 30zM211 726q-43 -4 -68 -49.5t-31.5 -107.5t-4 -132t9.5 -121.5t14 -77.5q5 -22 15.5 -48.5t31.5 -54.5t44 -30h4.5h4.5h3q10 0 22 7v226q0 72 -7 189t-7 189v6
q-9 4 -23 4h-8z" />
    <glyph glyph-name="oe" unicode="&#x153;" horiz-adv-x="515" 
d="M236 808q17 -3 32 -9h156q4 0 15 -8t12 -12q1 -2 1 -5q0 -14 -14 -21.5t-29 -7.5h-120l5 -332l108 16h5q28 0 28 -18q0 -19 -24 -30q-7 -3 -15 -4l-100 -15l-3 -261q9 -1 52 -1q16 0 37 2t33.5 3t24.5 0t17.5 -8t6.5 -20q1 -16 -52 -22t-110 -3q-30 -23 -67 -23
q-185 0 -185 419q0 34 1 60.5t5 66t11.5 69t21.5 62t33 53.5t48 35t66 14zM232 79h10l-11 675q-7 3 -16 3q-26 0 -48 -26.5t-34 -64t-18.5 -71.5t-6.5 -55q-1 -32 -1 -88q0 -206 33 -289.5t92 -83.5z" />
    <glyph glyph-name="Ydieresis" unicode="&#x178;" horiz-adv-x="392" 
d="M221 25q-5 42 -11 132.5t-13.5 164t-20.5 122.5q-99 198 -119 243q-18 39 7 50q17 9 29 -6q3 -3 4 -7l114 -240l67 265q2 13 18 18t31 -2.5t15 -22.5v-4l-99 -304l35 -406q0 -22 -27 -22q-26 0 -30 19zM68 850q0 9 12.5 19.5t21.5 10.5q20 0 32.5 -14t12.5 -35
q0 -25 -40 -25q-39 0 -39 44zM200 860q0 9 10.5 19.5t18.5 10.5q17 0 27.5 -14t10.5 -36q0 -26 -34 -26q-33 0 -33 46z" />
    <glyph glyph-name="florin" unicode="&#x192;" horiz-adv-x="320" 
d="M51 705q0 82 115 89q3 0 20 1t28 0.5t25.5 -3t22 -9.5t8.5 -19q0 -17 -27 -19h-9q-128 7 -128 -43v-8q-4 -120 16 -202q11 -2 56 1h7q3 0 13.5 2.5t20 4t19 1.5t15.5 -5t6 -15q0 -21 -25.5 -29.5t-60.5 -10t-41 -3.5q-4 -61 9 -219.5t13 -206.5v-4q0 -20 -11.5 -26.5
t-24.5 0.5t-16 22q-7 244 -29 446t-22 255z" />
    <glyph glyph-name="quoteleft" unicode="&#x2018;" horiz-adv-x="161" 
d="M99 787q12 -197 12 -352q0 -23 -24 -23q-10 0 -23.5 5t-13.5 14v338q0 10 7 20.5t17 10.5q13 0 25 -13z" />
    <glyph glyph-name="quoteright" unicode="&#x2019;" horiz-adv-x="161" 
d="M62 425q-12 197 -12 352q0 23 24 23q10 0 23.5 -5t13.5 -14v-338q0 -10 -7 -20.5t-17 -10.5q-13 0 -25 13z" />
    <glyph glyph-name="quotesinglbase" unicode="&#x201a;" horiz-adv-x="161" 
d="M62 -161q-12 197 -12 352q0 23 24 23q10 0 23.5 -5t13.5 -14v-338q0 -10 -7 -20.5t-17 -10.5q-13 0 -25 13z" />
    <glyph glyph-name="quotedblleft" unicode="&#x201c;" horiz-adv-x="276" 
d="M99 787q12 -197 12 -352q0 -23 -24 -23q-10 0 -23.5 5t-13.5 14v338q0 10 7 20.5t17 10.5q13 0 25 -13zM215 751q11 -159 11 -309q0 -20 -22 -20q-10 0 -22.5 4t-12.5 13v296q0 8 7 17.5t16 9.5q12 0 23 -11z" />
    <glyph glyph-name="quotedblright" unicode="&#x201d;" horiz-adv-x="276" 
d="M177 425q-12 197 -12 352q0 23 24 23q10 0 23.5 -5t13.5 -14v-338q0 -10 -7 -20.5t-17 -10.5q-13 0 -25 13zM61 461q-11 159 -11 309q0 20 22 20q10 0 22.5 -4t12.5 -13v-296q0 -8 -7 -17.5t-16 -9.5q-12 0 -23 11z" />
    <glyph glyph-name="quotedblbase" unicode="&#x201e;" horiz-adv-x="276" 
d="M177 -175q-12 197 -12 352q0 23 24 23q10 0 23.5 -5t13.5 -14v-338q0 -10 -7 -20.5t-17 -10.5q-13 0 -25 13zM61 -139q-11 159 -11 309q0 20 22 20q10 0 22.5 -4t12.5 -13v-296q0 -8 -7 -17.5t-16 -9.5q-12 0 -23 11z" />
    <glyph glyph-name="ellipsis" unicode="&#x2026;" horiz-adv-x="537" 
d="M50 56q0 9 12.5 19.5t21.5 10.5q20 0 32.5 -14t12.5 -35q0 -25 -40 -25q-39 0 -39 44zM229 56q0 9 12.5 19.5t21.5 10.5q20 0 32.5 -14t12.5 -35q0 -25 -40 -25q-39 0 -39 44zM408 56q0 9 12.5 19.5t21.5 10.5q20 0 32.5 -14t12.5 -35q0 -25 -40 -25q-39 0 -39 44z" />
    <glyph glyph-name="guilsinglleft" unicode="&#x2039;" horiz-adv-x="338" 
d="M61 323q-17 25 -7 46l197 132q25 10 34.5 -10.5t-12.5 -34.5l-171 -104l157 -117q20 -16 9 -34.5t-35 -8.5z" />
    <glyph glyph-name="guilsinglright" unicode="&#x203a;" horiz-adv-x="338" 
d="M277 323l-172 -131q-24 -10 -35 8.5t9 34.5l157 117l-171 104q-22 14 -12.5 34.5t34.5 10.5l197 -132q10 -21 -7 -46z" />
    <glyph glyph-name="Euro" unicode="&#x20ac;" horiz-adv-x="472" 
d="M86 348q-28 6 -28 29q0 7 12 12q3 1 25 1q2 39 4 59v11l-31 -7h-2q-16 0 -16 31q0 22 11 24q14 -1 43 -1q7 45 20 87.5t34.5 84t56.5 66.5t78 25h7q35 -2 61.5 -20t26.5 -52q0 -22 -17 -22q-16 0 -36 21.5t-39 24.5h-2q-2 1 -4 1q-39 0 -72.5 -60.5t-51.5 -153.5
q90 5 110 5h74q16 0 16 -29q0 -8 -4.5 -12t-8.5 -4.5t-12 0.5t-10 1l-173 -4q-6 -50 -7 -76q16 0 38.5 -1t24.5 -1h10q60 0 60 -28q0 -15 -21 -15l-114 3q0 -112 34.5 -186t105.5 -77h5q24 0 38 14.5t18.5 32t16 32t31.5 14.5q24 0 24 -22q0 -8 -2 -12.5t-6 -12t-7 -14.5
q-35 -74 -112 -74h-9q-54 2 -92.5 30.5t-59 75.5t-29.5 95.5t-10 103.5h-9z" />
    </font>
</defs>
</svg>
